<svg id="Layer_1" data-name="Layer 1" xmlns="http://www.w3.org/2000/svg" viewBox="0 0 911.97 831.44"><defs><style>.cls-1{fill:#a1d4cb;}.cls-2{fill:#0e1e34;}.cls-3{fill:#fff;}.cls-4{fill:#efedba;}.cls-5{fill:#173159;}.cls-6{fill:#ee6b52;}.cls-7{fill:#1d4172;}</style></defs><rect class="cls-1" x="147.38" y="454.29" width="398.65" height="292.48" transform="translate(295.49 -189.16) rotate(30.4)"/><path class="cls-2" d="M262.93,337.85a58.68,58.68,0,0,0-80.23,20.9L153,409.31c-4.07,7-1.43,15.84,3.79,22A44,44,0,0,1,114.75,503c-7.9-1.55-17,.47-21,7.42L64.06,561A58.68,58.68,0,0,0,85,641.23L438.91,848.85A58.68,58.68,0,0,0,519.14,828l29.66-50.57c4.08-7,1.43-15.83-3.79-22a44,44,0,0,1,42.08-71.73c7.91,1.55,16.95-.47,21-7.42l29.66-50.57a58.68,58.68,0,0,0-20.9-80.22ZM261.59,456,187.44,582.4a14.7,14.7,0,0,0,5.22,20.06L420.2,735.93a14.7,14.7,0,0,0,20.06-5.23l74.15-126.41a14.7,14.7,0,0,0-5.23-20L281.64,450.77A14.69,14.69,0,0,0,261.59,456Zm-17.87-27.47a29.28,29.28,0,0,1,40.11-10.45l252.82,148.3a29.27,29.27,0,0,1,10.45,40.11l-89,151.7A29.28,29.28,0,0,1,418,768.63L165.19,620.33a29.29,29.29,0,0,1-10.45-40.12Z" transform="translate(-56.01 -96.28)"/><path class="cls-3" d="M295,618.09a56.5,56.5,0,0,0,19.9,20.81c18.74,11,31.55,2.46,36.64-6.59,8.69-15.19-1.12-29.64-15.22-37.91l-8.13-4.77,6.43-11,8.12,4.77c10.62,6.23,27.26,8.64,34.75-4.13,5.06-8.63,4.07-19.47-9.37-27.35-8.62-5.06-19.15-6.11-25.74-5.52l2.41-12.85c8.07-.84,21.45,1.44,33.06,8.25,21.23,12.45,23.45,30.7,15.77,43.8-6.52,11.11-18.7,16.68-34.79,13.7l-.2.34c11.72,10.43,16.66,26.71,7.81,41.8-10.12,17.25-32.41,24.46-58.28,9.29-12.11-7.11-20.49-17.15-23.76-23.74Z" transform="translate(-56.01 -96.28)"/><rect class="cls-4" x="469.54" y="525.11" width="398.65" height="292.48" transform="translate(375.6 -342.43) rotate(30.4)"/><path class="cls-5" d="M585.09,408.67a58.68,58.68,0,0,0-80.23,20.9L475.2,480.13c-4.08,7-1.43,15.84,3.79,22a44,44,0,0,1-42.08,71.73c-7.91-1.55-17,.47-21,7.42l-29.66,50.57a58.68,58.68,0,0,0,20.9,80.22l354,207.62a58.68,58.68,0,0,0,80.23-20.9L871,848.21c4.07-7,1.43-15.84-3.79-22a44,44,0,0,1,42.08-71.73c7.9,1.55,17-.47,21-7.42l29.66-50.57A58.67,58.67,0,0,0,939,616.29Zm-1.35,118.14L509.59,653.22a14.71,14.71,0,0,0,5.23,20.06L742.36,806.75a14.69,14.69,0,0,0,20-5.22l74.15-126.41a14.7,14.7,0,0,0-5.22-20.06L603.8,521.59A14.7,14.7,0,0,0,583.74,526.81Zm-17.86-27.47A29.28,29.28,0,0,1,606,488.89l252.82,148.3a29.29,29.29,0,0,1,10.45,40.12L780.28,829a29.28,29.28,0,0,1-40.11,10.45L487.35,691.15A29.28,29.28,0,0,1,476.9,651Z" transform="translate(-56.01 -96.28)"/><path class="cls-3" d="M602.67,707.1l5.25-9,18-4.4c42.9-10,63.52-16.69,73.22-32.85,6.42-10.94,7-24.17-9-33.61-9.79-5.74-20.84-5.53-28.24-4.31l1.38-13a54.78,54.78,0,0,1,36.94,6.95c23.23,13.62,23.67,35.29,14.62,50.71-11.67,19.9-35.54,27.53-71.11,36.09l-13.29,2.9-.2.34,48.44,28.41-7.11,12.1Z" transform="translate(-56.01 -96.28)"/><rect class="cls-6" x="431.17" y="220.77" width="398.65" height="292.48" transform="translate(216.34 -364.84) rotate(30.4)"/><path class="cls-7" d="M546.71,104.33a58.67,58.67,0,0,0-80.22,20.9l-29.66,50.56c-4.08,7-1.43,15.84,3.78,22a44,44,0,0,1-42.08,71.73c-7.9-1.55-16.94.47-21,7.42l-29.66,50.57a58.67,58.67,0,0,0,20.9,80.22l354,207.62a58.67,58.67,0,0,0,80.22-20.9l29.66-50.56c4.08-7,1.43-15.84-3.78-22a44,44,0,0,1,42.08-71.73c7.9,1.55,16.94-.47,21-7.42l29.66-50.57A58.67,58.67,0,0,0,900.66,312Zm-1.34,118.14L471.22,348.88a14.69,14.69,0,0,0,5.23,20.06L704,502.41A14.7,14.7,0,0,0,724,497.19l74.15-126.41A14.69,14.69,0,0,0,793,350.72L565.43,217.25A14.7,14.7,0,0,0,545.37,222.47ZM527.5,195a29.29,29.29,0,0,1,40.12-10.45l252.82,148.3A29.29,29.29,0,0,1,830.89,373l-89,151.69a29.29,29.29,0,0,1-40.12,10.45L449,386.81a29.29,29.29,0,0,1-10.45-40.12Z" transform="translate(-56.01 -96.28)"/><path class="cls-3" d="M656.81,318.33l-.33-.19-24.68-.88,3.7-12.76,31,1.21L678.89,313,615.65,420.81l-14.1-8.27Z" transform="translate(-56.01 -96.28)"/></svg>