<svg xmlns="http://www.w3.org/2000/svg" viewBox="0 0 1000 1000"><defs><style>.cls-1{fill:none;}.cls-2{fill:#ed2472;}.cls-3{fill:#6e2c91;}.cls-4{fill:#2ba249;}.cls-5{fill:#0c733b;}.cls-6{fill:#b9489b;}.cls-7{fill:#7cccbd;}.cls-8{fill:#85cca9;}.cls-9{fill:#76c69a;}.cls-10{fill:#03a24a;}.cls-11{fill:#4cbfee;}.cls-12{fill:#00b2b8;}.cls-13{fill:#4c2e91;}.cls-14{fill:#2a2d7c;}.cls-15{fill:#029ed0;}.cls-16{fill:#4b9fd8;}.cls-17{fill:#f68623;}.cls-18{fill:#feeb73;}.cls-19{fill:#b82025;}.cls-20{fill:#e6af23;}.cls-21{fill:#e66b25;}.cls-22{fill:#5c0e40;}.cls-23{fill:#5d2b84;}.cls-24{fill:#974c9d;}.cls-25{fill:#90cc86;}.cls-26{fill:#872783;}.cls-27{fill:#00a291;}.cls-28{fill:#ef3d23;}.cls-29{fill:#78cfe4;}.cls-30{fill:#4b57a6;}.cls-31{fill:#ad56a1;}.cls-32{fill:#aa56a1;}.cls-33{fill:#642671;}.cls-34{fill:#3e61ad;}.cls-35{fill:#007273;}.cls-36{fill:#0fb790;}.cls-37{fill:#00733c;}.cls-38{fill:#302f8f;}.cls-39{fill:#00568b;}.cls-40{fill:#8a181a;}.cls-41{fill:#1f451f;}.cls-42{fill:#2f256e;}.cls-43{fill:#5d6cb3;}.cls-44{fill:#4c479d;}.cls-45{fill:#2b348f;}.cls-46{fill:#43bead;}.cls-47{fill:#11a249;}.cls-48{fill:#b81c8d;}.cls-49{fill:#007456;}.cls-50{fill:#28b34b;}.cls-51{fill:#00a386;}.cls-52{fill:#00a27b;}.cls-53{fill:#005ea3;}.cls-54{fill:#5dc1a1;}.cls-55{fill:#4371b8;}.cls-56{fill:#6fb844;}.cls-57{fill:#48b973;}.cls-58{fill:#71c8b2;}.cls-59{fill:#00736a;}.cls-60{fill:#0099a1;}.cls-61{fill:#3b4da1;}.cls-62{fill:#7dcdc4;}.cls-63{fill:#cf1c65;}.cls-64{fill:#e1e31b;}.cls-65{fill:#287439;}.cls-66{fill:#008b50;}.cls-67{fill:#0cb8a1;}.cls-68{fill:#9e5da5;}.cls-69{fill:#7f56a3;}.cls-70{fill:#721446;}.cls-71{fill:#211b5a;}.cls-72{fill:#da69a8;}.cls-73{fill:#452e90;}.cls-74{fill:#874c9e;}.cls-75{fill:#b81d85;}.cls-76{fill:#5f2670;}.cls-77{fill:#6663ad;}.cls-78{fill:#5679bc;}.cls-79{fill:#92cfa3;}.cls-80{fill:#cec72b;}.cls-81{fill:#ef3746;}.cls-82{fill:#f89520;}.cls-83{fill:#6d52a2;}.cls-84{fill:#c64f9d;}.cls-85{fill:#f175ad;}.cls-86{fill:#cb539f;}.cls-87{fill:#9c52a0;}.cls-88{fill:#8b2d91;}.cls-89{fill:#d15ca2;}.cls-90{fill:#f173ac;}.cls-91{fill:#72174e;}.cls-92{fill:#4889c8;}.cls-93{fill:#dc4d9b;}.cls-94{fill:#b862a7;}.cls-95{fill:#7b56a4;}.cls-96{fill:#e60a7a;}.cls-97{fill:#77469b;}.cls-98{fill:#008b53;}.cls-99{fill:#82c341;}.cls-100{fill:#f9ed3a;}.cls-101{fill:#96c93d;}.cls-102{fill:#9fba3b;}.cls-103{fill:#ccde6e;}.cls-104{fill:#007358;}.cls-105{fill:#45bc9b;}.cls-106{fill:#45b649;}.cls-107{fill:#7dc242;}.cls-108{fill:#cddc29;}.cls-109{fill:#dfe21d;}.cls-110{fill:#f6ec34;}.cls-111{fill:#74c044;}.cls-112{fill:#00a265;}.cls-113{fill:#11b794;}.cls-114{fill:#76cbc8;}.cls-115{fill:#6278ba;}.cls-116{fill:#252d6c;}.cls-117{fill:#f99f1e;}.cls-118{fill:#ef3757;}.cls-119{fill:#e97b24;}.cls-120{fill:#faa431;}.cls-121{fill:#7cc242;}.cls-122{fill:#97ca3d;}.cls-123{fill:#b7d54e;}.cls-124{fill:#d2de40;}.cls-125{fill:#cfdd28;}.cls-126{fill:#86d1d3;}.cls-127{fill:#7d51a1;}.cls-128{fill:#5f53a3;}.cls-129{fill:#43beee;}.cls-130{fill:#44bb92;}.cls-131{fill:#bad64f;}.cls-132{fill:#4ab74c;}.cls-133{fill:#078b79;}.cls-134{fill:#4162ae;}.cls-135{fill:#2c318d;}.cls-136{fill:#ed2024;}.cls-137{fill:#3e54a5;}.cls-138{fill:#48b85e;}.cls-139{fill:#59469c;}.cls-140{fill:#0589b9;}.cls-141{fill:#44c7f2;}.cls-142{fill:#335eab;}.cls-143{fill:#cf82b7;}.cls-144{fill:#ee3672;}.cls-145{fill:#5cba47;}.cls-146{fill:#5dbd74;}.cls-147{fill:#6fc59e;}.cls-148{fill:#91cc83;}.cls-149{fill:#71c7ad;}.cls-150{fill:#5ebf84;}.cls-151{fill:#77c043;}.cls-152{fill:#94c93d;}.cls-153{fill:#cfbe2b;}.cls-154{fill:#6756a5;}.cls-155{fill:#18335b;}.cls-156{fill:#b34097;}.cls-157{fill:#730e2c;}.cls-158{fill:#c362a6;}.cls-159{fill:#c5a4cd;}.cls-160{fill:#9d248e;}.cls-161{fill:#d26caa;}.cls-162{fill:#3456a6;}.cls-163{fill:#72c6a0;}.cls-164{fill:#95c93d;}.cls-165{fill:#77c26b;}.cls-166{fill:#1fb35e;}.cls-167{fill:#5cc5c2;}.cls-168{fill:#8ac640;}.cls-169{fill:#77c79f;}.cls-170{fill:#dae120;}.cls-171{fill:#6fc284;}.cls-172{fill:#44bb8f;}.cls-173{fill:#7354a3;}.cls-174{fill:#487ec0;}.cls-175{fill:#3d59a8;}.cls-176{fill:#351b5a;}.cls-177{fill:#0084ba;}.cls-178{fill:#456fb6;}.cls-179{fill:#7ccecf;}.cls-180{fill:#5dbb4d;}.cls-181{fill:#bed730;}.cls-182{fill:#5aba47;}.cls-183{fill:#b859a2;}.cls-184{fill:#d6df24;}.cls-185{fill:#aad037;}.cls-186{fill:#ed1d30;}.cls-187{fill:#fbed24;}.cls-188{fill:#e5b322;}.cls-189{fill:#f15e35;}.cls-190{fill:#fcb85c;}.cls-191{fill:#fed315;}.cls-192{fill:#a01d21;}.cls-193{fill:#fba92f;}.cls-194{fill:#e9e626;}.cls-195{fill:#ee2524;}.cls-196{fill:#f8ec22;}.cls-197{fill:#f79134;}.cls-198{fill:#f15f22;}.cls-199{fill:#e41e25;}.cls-200{fill:#33c0c9;}.cls-201{fill:#f5854b;}.cls-202{fill:#d01c61;}.cls-203{fill:#ce862a;}.cls-204{fill:#cf1f45;}.cls-205{fill:#ee2d24;}.cls-206{fill:#f68833;}.cls-207{fill:#d7e03f;}.cls-208{fill:#b74626;}.cls-209{fill:#f15922;}.cls-210{fill:#ee265e;}.cls-211{fill:#f7ed49;}.cls-212{fill:#f89a20;}</style></defs><g id="Layer_2" data-name="Layer 2"><path class="cls-1" d="M654.91,408.87,500,318.5,345.09,408.87,302,452V548l43.09,43.1L500,681.5l154.91-90.36L698,548V452Zm0,0L500,318.5,345.09,408.87,302,452V548l43.09,43.1L500,681.5l154.91-90.36L698,548V452ZM708.85,462l.27,1.06.81.81Zm.27,74.9-.27,1.06,1.08-1.87Zm-54.21-128L500,318.5,345.09,408.87,302,452V548l43.09,43.1L500,681.5l154.91-90.36L698,548V452Z"/><polygon class="cls-2" points="455.89 292.77 463.08 290.88 459.23 294.73 455.89 292.77"/><polygon class="cls-3" points="811.15 500 770.02 476.02 832.56 413.49 896 450.5 811.15 500"/><polygon class="cls-4" points="444.75 198.71 417.31 171.26 449.73 190.17 444.75 198.71"/><polygon class="cls-5" points="351.69 231.99 302 203 302 104 374.27 146.16 351.69 231.99"/><path class="cls-1" d="M654.91,408.87,500,318.5,345.09,408.87,302,452V548l43.09,43.1L500,681.5l154.91-90.36L698,548V452Zm0,0L500,318.5,345.09,408.87,302,452V548l43.09,43.1L500,681.5l154.91-90.36L698,548V452Zm0,0L500,318.5,345.09,408.87,302,452V548l43.09,43.1L500,681.5l154.91-90.36L698,548V452Zm0,0L500,318.5,345.09,408.87,302,452V548l43.09,43.1L500,681.5l154.91-90.36L698,548V452Zm0,0L500,318.5,345.09,408.87,302,452V548l43.09,43.1L500,681.5l154.91-90.36L698,548V452Zm0,0L500,318.5,345.09,408.87,302,452V548l43.09,43.1L500,681.5l154.91-90.36L698,548V452Zm0,0L500,318.5,345.09,408.87,302,452V548l43.09,43.1L500,681.5l154.91-90.36L698,548V452Zm0,0L500,318.5,345.09,408.87,302,452V548l43.09,43.1L500,681.5l154.91-90.36L698,548V452Zm0,0L500,318.5,345.09,408.87,302,452V548l43.09,43.1L500,681.5l154.91-90.36L698,548V452Zm0,0L500,318.5,345.09,408.87,302,452V548l43.09,43.1L500,681.5l154.91-90.36L698,548V452Zm0,0L500,318.5,345.09,408.87,302,452V548l43.09,43.1L500,681.5l154.91-90.36L698,548V452Zm0,0L500,318.5,345.09,408.87,302,452V548l43.09,43.1L500,681.5l154.91-90.36L698,548V452Zm0,0L500,318.5,345.09,408.87,302,452V548l43.09,43.1L500,681.5l154.91-90.36L698,548V452Zm0,0L500,318.5,345.09,408.87,302,452V548l43.09,43.1L500,681.5l154.91-90.36L698,548V452Zm0,0L500,318.5,345.09,408.87,302,452V548l43.09,43.1L500,681.5l154.91-90.36L698,548V452Zm0,0L500,318.5,345.09,408.87,302,452V548l43.09,43.1L500,681.5l154.91-90.36L698,548V452Zm0,0L500,318.5,345.09,408.87,302,452V548l43.09,43.1L500,681.5l154.91-90.36L698,548V452Zm0,0L500,318.5,345.09,408.87,302,452V548l43.09,43.1L500,681.5l154.91-90.36L698,548V452Zm0,0L500,318.5,345.09,408.87,302,452V548l43.09,43.1L500,681.5l154.91-90.36L698,548V452Zm0,0L500,318.5,345.09,408.87,302,452V548l43.09,43.1L500,681.5l154.91-90.36L698,548V452Zm0,0L500,318.5,345.09,408.87,302,452V548l43.09,43.1L500,681.5l154.91-90.36L698,548V452Zm0,0L500,318.5,345.09,408.87,302,452V548l43.09,43.1L500,681.5l154.91-90.36L698,548V452ZM708.85,462l.27,1.06.81.81Zm.27,74.9-.27,1.06,1.08-1.87Zm-54.21-128L500,318.5,345.09,408.87,302,452V548l43.09,43.1L500,681.5l154.91-90.36L698,548V452Zm0,0L500,318.5,345.09,408.87,302,452V548l43.09,43.1L500,681.5l154.91-90.36L698,548V452Zm0,0L500,318.5,345.09,408.87,302,452V548l43.09,43.1L500,681.5l154.91-90.36L698,548V452Zm0,0L500,318.5,345.09,408.87,302,452V548l43.09,43.1L500,681.5l154.91-90.36L698,548V452Zm0,0L500,318.5,345.09,408.87,302,452V548l43.09,43.1L500,681.5l154.91-90.36L698,548V452Zm0,0L500,318.5,345.09,408.87,302,452V548l43.09,43.1L500,681.5l154.91-90.36L698,548V452Zm0,0L500,318.5,345.09,408.87,302,452V548l43.09,43.1L500,681.5l154.91-90.36L698,548V452Zm0,0L500,318.5,345.09,408.87,302,452V548l43.09,43.1L500,681.5l154.91-90.36L698,548V452Zm0,0L500,318.5,345.09,408.87,302,452V548l43.09,43.1L500,681.5l154.91-90.36L698,548V452Zm0,0L500,318.5,345.09,408.87,302,452V548l43.09,43.1L500,681.5l154.91-90.36L698,548V452Zm0,0L500,318.5,345.09,408.87,302,452V548l43.09,43.1L500,681.5l154.91-90.36L698,548V452Zm0,0L500,318.5,345.09,408.87,302,452V548l43.09,43.1L500,681.5l154.91-90.36L698,548V452Zm0,0L500,318.5,345.09,408.87,302,452V548l43.09,43.1L500,681.5l154.91-90.36L698,548V452Zm0,0L500,318.5,345.09,408.87,302,452V548l43.09,43.1L500,681.5l154.91-90.36L698,548V452Zm0,0L500,318.5,345.09,408.87,302,452V548l43.09,43.1L500,681.5l154.91-90.36L698,548V452Zm0,0L500,318.5,345.09,408.87,302,452V548l43.09,43.1L500,681.5l154.91-90.36L698,548V452Zm0,0L500,318.5,345.09,408.87,302,452V548l43.09,43.1L500,681.5l154.91-90.36L698,548V452Zm0,0L500,318.5,345.09,408.87,302,452V548l43.09,43.1L500,681.5l154.91-90.36L698,548V452Zm0,0L500,318.5,345.09,408.87,302,452V548l43.09,43.1L500,681.5l154.91-90.36L698,548V452Zm0,0L500,318.5,345.09,408.87,302,452V548l43.09,43.1L500,681.5l154.91-90.36L698,548V452Zm0,0L500,318.5,345.09,408.87,302,452V548l43.09,43.1L500,681.5l154.91-90.36L698,548V452Zm0,0L500,318.5,345.09,408.87,302,452V548l43.09,43.1L500,681.5l154.91-90.36L698,548V452Zm0,0L500,318.5,345.09,408.87,302,452V548l43.09,43.1L500,681.5l154.91-90.36L698,548V452Z"/><polygon class="cls-6" points="307.42 331.84 302 335 302 333.27 307.42 331.84"/><polygon class="cls-7" points="307.42 668.16 302 666.73 302 665 307.42 668.16"/><polygon class="cls-8" points="455.89 707.23 459.23 705.27 463.08 709.12 455.89 707.23"/><polygon class="cls-9" points="536.92 709.12 540.77 705.27 544.11 707.23 536.92 709.12"/><polygon class="cls-10" points="349.19 241.47 302 229.06 302 203 351.69 231.99 349.19 241.47"/><polygon class="cls-11" points="718.85 500 709.12 463.08 709.93 463.89 722.63 485.63 718.85 500"/><polygon class="cls-12" points="770.02 523.98 746.04 500 770.02 476.02 811.15 500 770.02 523.98"/><polygon class="cls-13" points="832.56 586.51 770.02 523.98 811.15 500 896 549.5 832.56 586.51"/><polygon class="cls-14" points="302 896 302 797 351.69 768.01 374.27 853.84 302 896"/><polygon class="cls-15" points="302 797 302 770.94 349.19 758.53 351.69 768.01 302 797"/><polygon class="cls-16" points="417.31 828.74 444.75 801.29 449.73 809.83 417.31 828.74"/><polygon class="cls-17" points="689.67 570.87 698 556.57 698 566 689.67 570.87"/><polygon class="cls-18" points="302 443.43 302 434 310.33 429.13 302 443.43"/><polygon class="cls-19" points="709.12 463.08 698 451.96 698 443.43 708.85 462.02 709.12 463.08"/><polygon class="cls-20" points="698 443.43 689.67 429.13 698 434 698 443.43"/><path class="cls-1" d="M290.88,536.92l-.81-.81,1.08,1.87Zm0,0-.81-.81,1.08,1.87Zm0,0-.81-.81,1.08,1.87Zm-.81-73,.81-.81.27-1.06Zm.81,73-.81-.81,1.08,1.87Zm-.81-73,.81-.81.27-1.06Zm.81,73-.81-.81,1.08,1.87Zm0,0-.81-.81,1.08,1.87Zm0,0-.81-.81,1.08,1.87Zm0,0-.81-.81,1.08,1.87Zm0,0-.81-.81,1.08,1.87Zm-.81-73,.81-.81.27-1.06Zm0,0,.81-.81.27-1.06Zm0,0,.81-.81.27-1.06Zm0,0,.81-.81.27-1.06Zm0,0,.81-.81.27-1.06Zm0,0,.81-.81.27-1.06Zm0,0,.81-.81.27-1.06Zm0,0,.81-.81.27-1.06Zm.81,73-.81-.81,1.08,1.87Zm-.81-73,.81-.81.27-1.06Zm.81,73-.81-.81,1.08,1.87Zm0,0-.81-.81,1.08,1.87Zm0,0-.81-.81,1.08,1.87Zm364-128L500,318.5,345.09,408.87,302,452V548l43.09,43.1L500,681.5l154.91-90.36L698,548V452Z"/><polygon class="cls-21" points="536.92 290.88 544.11 292.77 540.77 294.73 536.92 290.88"/><polygon class="cls-22" points="555.25 198.71 550.27 190.17 582.69 171.26 555.25 198.71"/><polygon class="cls-23" points="648.31 231.99 625.73 146.16 698 104 698 203 648.31 231.99"/><polygon class="cls-24" points="188.85 500 104 450.5 167.44 413.49 229.98 476.02 188.85 500"/><polygon class="cls-25" points="616.63 749.53 589.6 742.41 593.36 735.96 616.63 749.53"/><polygon class="cls-26" points="650.81 241.47 648.31 231.99 698 203 698 229.06 650.81 241.47"/><polygon class="cls-27" points="698 333.27 698 335 692.58 331.84 698 333.27"/><polygon class="cls-28" points="302 556.57 291.15 537.98 290.88 536.92 302 548.04 302 556.57"/><path class="cls-1" d="M290.88,536.92l-.81-.81,1.08,1.87Zm0,0-.81-.81,1.08,1.87Zm0,0-.81-.81,1.08,1.87Zm0,0-.81-.81,1.08,1.87Zm0,0-.81-.81,1.08,1.87Zm0,0-.81-.81,1.08,1.87Zm0,0-.81-.81,1.08,1.87Zm0,0-.81-.81,1.08,1.87Zm0,0-.81-.81,1.08,1.87Zm0,0-.81-.81,1.08,1.87Zm0,0-.81-.81,1.08,1.87Zm-.81-73,.81-.81.27-1.06Zm.81,73-.81-.81,1.08,1.87Zm0,0-.81-.81,1.08,1.87Zm364-128L500,318.5,345.09,408.87,302,452V548l43.09,43.1L500,681.5l154.91-90.36L698,548V452Z"/><polygon class="cls-29" points="698 665 698 666.73 692.58 668.16 698 665"/><polygon class="cls-30" points="167.44 586.51 104 549.5 188.85 500 229.98 523.98 167.44 586.51"/><polygon class="cls-31" points="229.98 523.98 188.85 500 229.98 476.02 253.96 500 229.98 523.98"/><polygon class="cls-32" points="698 797 648.31 768.01 650.81 758.53 698 770.94 698 797"/><polygon class="cls-33" points="698 896 625.73 853.84 648.31 768.01 698 797 698 896"/><path class="cls-1" d="M290.07,463.89l.81-.81.27-1.06Zm.81,73-.81-.81,1.08,1.87Zm364-128L500,318.5,345.09,408.87,302,452V548l43.09,43.1L500,681.5l154.91-90.36L698,548V452Zm0,0L500,318.5,345.09,408.87,302,452V548l43.09,43.1L500,681.5l154.91-90.36L698,548V452Zm0,0L500,318.5,345.09,408.87,302,452V548l43.09,43.1L500,681.5l154.91-90.36L698,548V452Zm0,0L500,318.5,345.09,408.87,302,452V548l43.09,43.1L500,681.5l154.91-90.36L698,548V452Zm0,0L500,318.5,345.09,408.87,302,452V548l43.09,43.1L500,681.5l154.91-90.36L698,548V452Zm0,0L500,318.5,345.09,408.87,302,452V548l43.09,43.1L500,681.5l154.91-90.36L698,548V452Zm0,0L500,318.5,345.09,408.87,302,452V548l43.09,43.1L500,681.5l154.91-90.36L698,548V452Zm0,0L500,318.5,345.09,408.87,302,452V548l43.09,43.1L500,681.5l154.91-90.36L698,548V452Zm0,0L500,318.5,345.09,408.87,302,452V548l43.09,43.1L500,681.5l154.91-90.36L698,548V452Zm0,0L500,318.5,345.09,408.87,302,452V548l43.09,43.1L500,681.5l154.91-90.36L698,548V452Zm0,0L500,318.5,345.09,408.87,302,452V548l43.09,43.1L500,681.5l154.91-90.36L698,548V452Zm0,0L500,318.5,345.09,408.87,302,452V548l43.09,43.1L500,681.5l154.91-90.36L698,548V452Zm0,0L500,318.5,345.09,408.87,302,452V548l43.09,43.1L500,681.5l154.91-90.36L698,548V452Zm54.21,128-.27,1.06,1.08-1.87Zm-.27-74.9.27,1.06.81.81Zm-53.94-53.15L500,318.5,345.09,408.87,302,452V548l43.09,43.1L500,681.5l154.91-90.36L698,548V452Zm0,0L500,318.5,345.09,408.87,302,452V548l43.09,43.1L500,681.5l154.91-90.36L698,548V452Zm0,0L500,318.5,345.09,408.87,302,452V548l43.09,43.1L500,681.5l154.91-90.36L698,548V452Zm0,0L500,318.5,345.09,408.87,302,452V548l43.09,43.1L500,681.5l154.91-90.36L698,548V452Zm0,0L500,318.5,345.09,408.87,302,452V548l43.09,43.1L500,681.5l154.91-90.36L698,548V452Zm0,0L500,318.5,345.09,408.87,302,452V548l43.09,43.1L500,681.5l154.91-90.36L698,548V452Zm0,0L500,318.5,345.09,408.87,302,452V548l43.09,43.1L500,681.5l154.91-90.36L698,548V452Zm0,0L500,318.5,345.09,408.87,302,452V548l43.09,43.1L500,681.5l154.91-90.36L698,548V452Zm0,0L500,318.5,345.09,408.87,302,452V548l43.09,43.1L500,681.5l154.91-90.36L698,548V452Zm0,0L500,318.5,345.09,408.87,302,452V548l43.09,43.1L500,681.5l154.91-90.36L698,548V452Zm0,0L500,318.5,345.09,408.87,302,452V548l43.09,43.1L500,681.5l154.91-90.36L698,548V452Zm0,0L500,318.5,345.09,408.87,302,452V548l43.09,43.1L500,681.5l154.91-90.36L698,548V452Zm0,0L500,318.5,345.09,408.87,302,452V548l43.09,43.1L500,681.5l154.91-90.36L698,548V452Z"/><polygon class="cls-34" points="521.77 232.19 500 219.5 550.27 190.17 555.25 198.71 521.77 232.19"/><polygon class="cls-35" points="500 253.96 478.23 232.19 500 219.5 521.77 232.19 500 253.96"/><polygon class="cls-36" points="478.23 232.19 444.75 198.71 449.73 190.17 500 219.5 478.23 232.19"/><polygon class="cls-37" points="500 219.5 449.73 190.17 500 104 550.27 190.17 500 219.5"/><polygon class="cls-38" points="229.06 698 153.5 698 189.07 637.02 241.47 650.81 229.06 698"/><polygon class="cls-39" points="846.5 698 770.94 698 758.53 650.81 810.93 637.02 846.5 698"/><polygon class="cls-40" points="302 579.2 297.9 563.61 302 566 302 579.2"/><path class="cls-1" d="M654.91,408.87,500,318.5,345.09,408.87,302,452V548l43.09,43.1L500,681.5l154.91-90.36L698,548V452Zm54.21,128-.27,1.06,1.08-1.87Zm-.27-74.9.27,1.06.81.81Zm-53.94-53.15L500,318.5,345.09,408.87,302,452V548l43.09,43.1L500,681.5l154.91-90.36L698,548V452Zm-364,128-.81-.81,1.08,1.87Zm-.81-73,.81-.81.27-1.06Zm0,0,.81-.81.27-1.06Zm0,0,.81-.81.27-1.06Zm0,0,.81-.81.27-1.06Zm0,0,.81-.81.27-1.06Zm0,0,.81-.81.27-1.06Zm0,0,.81-.81.27-1.06Zm0,0,.81-.81.27-1.06Zm0,0,.81-.81.27-1.06Zm0,0,.81-.81.27-1.06Zm0,0,.81-.81.27-1.06Z"/><polygon class="cls-41" points="810.93 362.98 758.53 349.19 770.94 302 846.5 302 810.93 362.98"/><polygon class="cls-42" points="189.07 362.98 153.5 302 229.06 302 241.47 349.19 189.07 362.98"/><polygon class="cls-43" points="550.27 809.83 500 780.5 521.77 767.81 555.25 801.29 550.27 809.83"/><polygon class="cls-44" points="500 896 449.73 809.83 500 780.5 550.27 809.83 500 896"/><polygon class="cls-45" points="449.73 809.83 444.75 801.29 478.23 767.81 500 780.5 449.73 809.83"/><polygon class="cls-46" points="500 780.5 478.23 767.81 500 746.04 521.77 767.81 500 780.5"/><path class="cls-1" d="M654.91,408.87,500,318.5,345.09,408.87,302,452V548l43.09,43.1L500,681.5l154.91-90.36L698,548V452Zm0,0L500,318.5,345.09,408.87,302,452V548l43.09,43.1L500,681.5l154.91-90.36L698,548V452Zm0,0L500,318.5,345.09,408.87,302,452V548l43.09,43.1L500,681.5l154.91-90.36L698,548V452Zm0,0L500,318.5,345.09,408.87,302,452V548l43.09,43.1L500,681.5l154.91-90.36L698,548V452Zm0,0L500,318.5,345.09,408.87,302,452V548l43.09,43.1L500,681.5l154.91-90.36L698,548V452Zm0,0L500,318.5,345.09,408.87,302,452V548l43.09,43.1L500,681.5l154.91-90.36L698,548V452Zm0,0L500,318.5,345.09,408.87,302,452V548l43.09,43.1L500,681.5l154.91-90.36L698,548V452Zm0,0L500,318.5,345.09,408.87,302,452V548l43.09,43.1L500,681.5l154.91-90.36L698,548V452Zm0,0L500,318.5,345.09,408.87,302,452V548l43.09,43.1L500,681.5l154.91-90.36L698,548V452Zm0,0L500,318.5,345.09,408.87,302,452V548l43.09,43.1L500,681.5l154.91-90.36L698,548V452Zm0,0L500,318.5,345.09,408.87,302,452V548l43.09,43.1L500,681.5l154.91-90.36L698,548V452Zm0,0L500,318.5,345.09,408.87,302,452V548l43.09,43.1L500,681.5l154.91-90.36L698,548V452Zm0,0L500,318.5,345.09,408.87,302,452V548l43.09,43.1L500,681.5l154.91-90.36L698,548V452Zm0,0L500,318.5,345.09,408.87,302,452V548l43.09,43.1L500,681.5l154.91-90.36L698,548V452Zm0,0L500,318.5,345.09,408.87,302,452V548l43.09,43.1L500,681.5l154.91-90.36L698,548V452Zm0,0L500,318.5,345.09,408.87,302,452V548l43.09,43.1L500,681.5l154.91-90.36L698,548V452Zm0,0L500,318.5,345.09,408.87,302,452V548l43.09,43.1L500,681.5l154.91-90.36L698,548V452Zm0,0L500,318.5,345.09,408.87,302,452V548l43.09,43.1L500,681.5l154.91-90.36L698,548V452Zm0,0L500,318.5,345.09,408.87,302,452V548l43.09,43.1L500,681.5l154.91-90.36L698,548V452Zm54.21,128-.27,1.06,1.08-1.87Zm-54.21-128L500,318.5,345.09,408.87,302,452V548l43.09,43.1L500,681.5l154.91-90.36L698,548V452Zm0,0L500,318.5,345.09,408.87,302,452V548l43.09,43.1L500,681.5l154.91-90.36L698,548V452Zm0,0L500,318.5,345.09,408.87,302,452V548l43.09,43.1L500,681.5l154.91-90.36L698,548V452Zm0,0L500,318.5,345.09,408.87,302,452V548l43.09,43.1L500,681.5l154.91-90.36L698,548V452Zm0,0L500,318.5,345.09,408.87,302,452V548l43.09,43.1L500,681.5l154.91-90.36L698,548V452Zm0,0L500,318.5,345.09,408.87,302,452V548l43.09,43.1L500,681.5l154.91-90.36L698,548V452Zm0,0L500,318.5,345.09,408.87,302,452V548l43.09,43.1L500,681.5l154.91-90.36L698,548V452Zm0,0L500,318.5,345.09,408.87,302,452V548l43.09,43.1L500,681.5l154.91-90.36L698,548V452Zm0,0L500,318.5,345.09,408.87,302,452V548l43.09,43.1L500,681.5l154.91-90.36L698,548V452Zm0,0L500,318.5,345.09,408.87,302,452V548l43.09,43.1L500,681.5l154.91-90.36L698,548V452Zm0,0L500,318.5,345.09,408.87,302,452V548l43.09,43.1L500,681.5l154.91-90.36L698,548V452Zm0,0L500,318.5,345.09,408.87,302,452V548l43.09,43.1L500,681.5l154.91-90.36L698,548V452Zm0,0L500,318.5,345.09,408.87,302,452V548l43.09,43.1L500,681.5l154.91-90.36L698,548V452Zm0,0L500,318.5,345.09,408.87,302,452V548l43.09,43.1L500,681.5l154.91-90.36L698,548V452Zm0,0L500,318.5,345.09,408.87,302,452V548l43.09,43.1L500,681.5l154.91-90.36L698,548V452Zm0,0L500,318.5,345.09,408.87,302,452V548l43.09,43.1L500,681.5l154.91-90.36L698,548V452Zm0,0L500,318.5,345.09,408.87,302,452V548l43.09,43.1L500,681.5l154.91-90.36L698,548V452Zm-364,128-.81-.81,1.08,1.87Z"/><polygon class="cls-47" points="427.17 261.99 410.4 257.59 444.75 198.71 478.23 232.19 427.17 261.99"/><polygon class="cls-48" points="478.47 275.49 427.17 261.99 478.23 232.19 500 253.96 478.47 275.49"/><polygon class="cls-49" points="383.37 250.47 349.19 241.47 351.69 231.99 383.37 250.47"/><polygon class="cls-50" points="410.4 257.59 383.37 250.47 351.69 231.99 374.27 146.16 417.31 171.26 444.75 198.71 410.4 257.59"/><polygon class="cls-51" points="417.31 171.26 374.27 146.16 378.01 131.97 417.31 171.26"/><polygon class="cls-52" points="751.35 534.88 736.54 509.5 746.04 500 770.02 523.98 751.35 534.88"/><polygon class="cls-53" points="794.43 608.75 751.35 534.88 770.02 523.98 832.56 586.51 794.43 608.75"/><polygon class="cls-54" points="810.93 637.02 794.43 608.75 832.56 586.51 868.03 621.99 810.93 637.02"/><polygon class="cls-55" points="758.53 650.81 753.72 632.51 794.43 608.75 810.93 637.02 758.53 650.81"/><polygon class="cls-56" points="731.12 546.68 724.51 521.53 736.54 509.5 751.35 534.88 731.12 546.68"/><polygon class="cls-57" points="753.72 632.51 731.12 546.68 751.35 534.88 794.43 608.75 753.72 632.51"/><polygon class="cls-58" points="671.33 680.57 673.25 673.25 692.58 668.16 671.33 680.57"/><polygon class="cls-59" points="302 698 229.06 698 241.47 650.81 302 666.73 302 698"/><polygon class="cls-60" points="333.27 698 302 698 302 666.73 307.42 668.16 328.68 680.57 333.27 698"/><polygon class="cls-61" points="203 797 229.06 698 302 698 302 770.94 203 797"/><polygon class="cls-62" points="302 770.94 302 698 333.27 698 349.19 758.53 302 770.94"/><polygon class="cls-63" points="540.77 705.27 548.04 698 579.2 698 544.11 707.23 540.77 705.27"/><polygon class="cls-64" points="297.9 436.39 302 420.8 302 434 297.9 436.39"/><path class="cls-1" d="M290.07,463.89l.81-.81.27-1.06Zm0,0,.81-.81.27-1.06Zm0,0,.81-.81.27-1.06Zm0,0,.81-.81.27-1.06Zm0,0,.81-.81.27-1.06Zm0,0,.81-.81.27-1.06Zm0,0,.81-.81.27-1.06Zm0,0,.81-.81.27-1.06Zm0,0,.81-.81.27-1.06Zm0,0,.81-.81.27-1.06Zm364.84-55L500,318.5,345.09,408.87,302,452V548l43.09,43.1L500,681.5l154.91-90.36L698,548V452Zm0,0L500,318.5,345.09,408.87,302,452V548l43.09,43.1L500,681.5l154.91-90.36L698,548V452Zm0,0L500,318.5,345.09,408.87,302,452V548l43.09,43.1L500,681.5l154.91-90.36L698,548V452Zm0,0L500,318.5,345.09,408.87,302,452V548l43.09,43.1L500,681.5l154.91-90.36L698,548V452Zm0,0L500,318.5,345.09,408.87,302,452V548l43.09,43.1L500,681.5l154.91-90.36L698,548V452ZM708.85,462l.27,1.06.81.81Z"/><polygon class="cls-65" points="770.94 302 698 302 698 229.06 797 203 770.94 302"/><polygon class="cls-66" points="758.53 349.19 698 333.27 698 302 770.94 302 758.53 349.19"/><polygon class="cls-67" points="698 302 698 333.27 692.58 331.84 671.33 319.43 666.73 302 698 302"/><polygon class="cls-46" points="692.58 331.84 673.25 326.75 671.33 319.44 692.58 331.84"/><polygon class="cls-68" points="698 302 666.73 302 650.81 241.47 698 229.06 698 302"/><polygon class="cls-69" points="205.57 391.25 189.07 362.98 241.47 349.19 246.28 367.49 205.57 391.25"/><polygon class="cls-70" points="248.65 465.12 205.57 391.25 246.28 367.49 268.88 453.32 248.65 465.12"/><polygon class="cls-71" points="167.44 413.49 131.97 378.01 189.07 362.98 205.57 391.25 167.44 413.49"/><polygon class="cls-72" points="229.98 476.02 167.44 413.49 205.57 391.25 248.65 465.12 229.98 476.02"/><polygon class="cls-73" points="253.96 500 229.98 476.02 248.65 465.12 263.46 490.5 253.96 500"/><polygon class="cls-74" points="263.46 490.5 248.65 465.12 268.88 453.32 275.49 478.47 263.46 490.5"/><polygon class="cls-75" points="648.31 768.01 616.63 749.53 650.81 758.53 648.31 768.01"/><polygon class="cls-76" points="621.99 868.03 582.69 828.74 625.73 853.84 621.99 868.03"/><polygon class="cls-77" points="625.73 853.84 582.69 828.74 555.25 801.29 589.6 742.41 616.63 749.53 648.31 768.01 625.73 853.84"/><polygon class="cls-78" points="582.69 828.74 550.27 809.83 555.25 801.29 582.69 828.74"/><polygon class="cls-51" points="555.25 801.29 521.77 767.81 572.83 738.01 589.6 742.41 555.25 801.29"/><polygon class="cls-79" points="521.77 767.81 500 746.04 521.53 724.51 572.83 738.01 521.77 767.81"/><polygon class="cls-80" points="698 579.2 698 566 702.1 563.61 698 579.2"/><polygon class="cls-81" points="698 566 698 556.57 708.85 537.98 702.1 563.61 698 566"/><polygon class="cls-82" points="345.09 591.13 310.33 570.87 302 556.57 302 548.04 345.09 591.13"/><polygon class="cls-83" points="500 281.15 478.47 275.49 500 253.96 521.53 275.49 500 281.15"/><polygon class="cls-84" points="536.92 290.88 500 281.15 521.53 275.49 536.92 290.88"/><polygon class="cls-85" points="521.53 275.49 500 253.96 521.77 232.19 572.83 261.99 521.53 275.49"/><polygon class="cls-86" points="572.83 261.99 521.77 232.19 555.25 198.71 589.6 257.59 572.83 261.99"/><polygon class="cls-87" points="589.6 257.59 555.25 198.71 582.69 171.26 625.73 146.16 648.31 231.99 616.63 250.47 589.6 257.59"/><polygon class="cls-88" points="582.69 171.26 621.99 131.97 625.73 146.16 582.69 171.26"/><polygon class="cls-89" points="521.53 275.49 572.83 261.99 584.85 269 544.11 292.77 536.92 290.88 521.53 275.49"/><polygon class="cls-90" points="615.5 302 579.2 302 544.11 292.77 584.85 269 602.12 279.08 615.5 302"/><polygon class="cls-91" points="622.09 313.29 579.2 302 615.5 302 622.09 313.29"/><polygon class="cls-92" points="671.33 319.44 641.43 302 666.73 302 671.33 319.44"/><polygon class="cls-93" points="666.73 302 641.43 302 602.12 279.08 593.36 264.04 616.63 250.47 650.81 241.47 666.73 302"/><polygon class="cls-94" points="616.63 250.47 648.31 231.99 650.81 241.47 616.63 250.47"/><polygon class="cls-95" points="593.36 264.04 589.6 257.59 616.63 250.47 593.36 264.04"/><polygon class="cls-96" points="602.12 279.08 584.85 269 593.36 264.04 602.12 279.08"/><polygon class="cls-97" points="584.85 269 572.83 261.99 589.6 257.59 593.36 264.04 584.85 269"/><polygon class="cls-98" points="673.25 326.75 622.09 313.29 615.5 302 641.43 302 671.33 319.44 673.25 326.75"/><polygon class="cls-99" points="641.43 302 615.5 302 602.12 279.08 641.43 302"/><polygon class="cls-100" points="708.85 462.02 698 443.43 698 434 702.1 436.39 708.85 462.02"/><polygon class="cls-19" points="702.1 436.39 698 434 698 420.8 702.1 436.39"/><polygon class="cls-101" points="328.68 680.57 307.42 668.16 326.75 673.25 328.68 680.57"/><polygon class="cls-102" points="326.75 673.25 307.42 668.16 302 665 302 579.2 326.75 673.25"/><polygon class="cls-103" points="302 665 246.28 632.51 268.88 546.68 297.9 563.61 302 579.2 302 665"/><polygon class="cls-104" points="302 665 302 666.73 241.47 650.81 246.29 632.51 302 665"/><polygon class="cls-105" points="241.47 650.81 189.07 637.02 205.57 608.75 246.28 632.51 241.47 650.81"/><polygon class="cls-106" points="246.28 632.51 205.57 608.75 248.65 534.88 268.88 546.68 246.28 632.51"/><polygon class="cls-107" points="268.88 546.68 248.65 534.88 263.46 509.5 275.49 521.53 268.88 546.68"/><polygon class="cls-108" points="297.9 563.61 268.88 546.68 275.49 521.53 290.06 536.11 291.15 537.98 297.9 563.61"/><polygon class="cls-109" points="275.49 521.53 263.46 509.5 269 500 277.37 514.37 275.49 521.53"/><polygon class="cls-110" points="290.06 536.11 275.49 521.53 277.37 514.37 290.06 536.11"/><polygon class="cls-111" points="290.88 536.92 290.06 536.11 277.37 514.37 281.15 500 290.88 536.92"/><polygon class="cls-1" points="291.15 537.98 290.06 536.11 290.88 536.92 291.15 537.98"/><polygon class="cls-112" points="277.37 514.37 269 500 277.37 485.63 281.15 500 277.37 514.37"/><polygon class="cls-113" points="269 500 263.46 490.5 275.49 478.47 277.37 485.63 269 500"/><polygon class="cls-34" points="263.46 509.5 253.96 500 263.46 490.5 269 500 263.46 509.5"/><polygon class="cls-114" points="205.57 608.75 167.44 586.51 229.98 523.98 248.65 534.88 205.57 608.75"/><polygon class="cls-115" points="248.65 534.88 229.98 523.98 253.96 500 263.46 509.5 248.65 534.88"/><polygon class="cls-116" points="189.07 637.02 131.97 621.99 167.44 586.51 205.57 608.75 189.07 637.02"/><polygon class="cls-117" points="654.91 591.13 698 548.04 698 556.57 689.67 570.87 654.91 591.13"/><polygon class="cls-1" points="500 681.5 345.09 591.13 302 548.04 302 451.96 345.09 408.87 500 318.5 654.91 408.87 698 451.96 698 548.04 654.91 591.13 500 681.5"/><polygon class="cls-118" points="698 556.57 698 548.04 709.12 536.92 708.85 537.98 698 556.57"/><polygon class="cls-119" points="579.2 698 548.04 698 654.91 591.13 689.67 570.87 622.09 686.71 579.2 698"/><polygon class="cls-120" points="622.09 686.71 689.67 570.87 698 566 698 579.2 673.25 673.25 622.09 686.71"/><polygon class="cls-121" points="641.43 698 615.5 698 622.09 686.71 673.25 673.25 671.33 680.57 641.43 698"/><polygon class="cls-122" points="615.5 698 579.2 698 622.09 686.71 615.5 698"/><polygon class="cls-123" points="584.85 731 544.11 707.23 579.2 698 615.5 698 602.12 720.92 584.85 731"/><polygon class="cls-124" points="602.12 720.92 615.5 698 641.43 698 602.12 720.92"/><polygon class="cls-125" points="521.53 724.51 536.92 709.12 544.11 707.23 584.85 731 572.83 738.01 521.53 724.51"/><polygon class="cls-126" points="589.6 742.41 572.83 738.01 584.85 731 593.36 735.96 589.6 742.41"/><polygon class="cls-25" points="593.36 735.96 584.85 731 602.12 720.92 593.36 735.96"/><polygon class="cls-127" points="650.81 758.53 616.63 749.53 593.36 735.96 602.12 720.92 641.43 698 666.73 698 650.81 758.53"/><polygon class="cls-128" points="698 770.94 650.81 758.53 666.73 698 698 698 698 770.94"/><polygon class="cls-129" points="698 666.73 698 698 666.73 698 671.33 680.57 692.58 668.16 698 666.73"/><polygon class="cls-130" points="666.73 698 641.43 698 671.33 680.57 666.73 698"/><polygon class="cls-131" points="698 579.2 698 665 692.58 668.16 673.25 673.25 698 579.2"/><polygon class="cls-132" points="698 665 698 579.2 702.1 563.61 731.12 546.68 753.72 632.51 698 665"/><polygon class="cls-109" points="702.1 563.61 708.85 537.98 709.93 536.11 724.51 521.53 731.12 546.68 702.1 563.61"/><polygon class="cls-1" points="708.85 537.98 709.12 536.92 709.93 536.11 708.85 537.98"/><polygon class="cls-133" points="758.53 650.81 698 666.73 698 665 753.72 632.51 758.53 650.81"/><polygon class="cls-134" points="770.94 698 698 698 698 666.73 758.53 650.81 770.94 698"/><polygon class="cls-135" points="797 797 698 770.94 698 698 770.94 698 797 797"/><polygon class="cls-136" points="345.09 408.87 451.96 302 471.72 302 500 318.5 345.09 408.87"/><path class="cls-1" d="M708.85,462l.27,1.06.81.81Zm-418.78,1.87.81-.81.27-1.06Zm0,0,.81-.81.27-1.06Zm0,0,.81-.81.27-1.06Zm0,0,.81-.81.27-1.06Zm0,0,.81-.81.27-1.06Zm0,0,.81-.81.27-1.06Zm0,0,.81-.81.27-1.06Zm364.84-55L500,318.5,345.09,408.87,302,452V548l43.09,43.1L500,681.5l154.91-90.36L698,548V452Z"/><polygon class="cls-137" points="832.56 413.49 794.43 391.25 810.93 362.98 868.03 378.01 832.56 413.49"/><polygon class="cls-27" points="794.43 391.25 753.72 367.49 758.53 349.19 810.93 362.98 794.43 391.25"/><polygon class="cls-138" points="758.53 349.19 753.72 367.49 698 335 698 333.27 758.53 349.19"/><polygon class="cls-139" points="770.02 476.02 751.35 465.12 794.43 391.25 832.56 413.49 770.02 476.02"/><polygon class="cls-140" points="698 335 698 420.8 673.25 326.75 692.58 331.84 698 335"/><polygon class="cls-141" points="751.35 465.12 731.12 453.32 753.72 367.49 794.43 391.25 751.35 465.12"/><polygon class="cls-142" points="731.12 453.32 702.1 436.39 698 420.8 698 335 753.72 367.49 731.12 453.32"/><polygon class="cls-143" points="415.15 269 427.17 261.99 478.47 275.49 463.08 290.88 455.89 292.77 415.15 269"/><polygon class="cls-144" points="463.08 290.88 478.47 275.49 500 281.15 463.08 290.88"/><polygon class="cls-145" points="397.88 279.08 406.64 264.04 415.15 269 397.88 279.08"/><polygon class="cls-146" points="415.15 269 406.64 264.04 410.4 257.59 427.17 261.99 415.15 269"/><polygon class="cls-147" points="420.8 302 384.5 302 397.88 279.08 415.15 269 455.89 292.77 420.8 302"/><polygon class="cls-147" points="406.64 264.04 383.37 250.47 410.4 257.59 406.64 264.04"/><polygon class="cls-51" points="384.5 302 358.57 302 397.88 279.08 384.5 302"/><polygon class="cls-148" points="358.57 302 333.27 302 349.19 241.47 383.37 250.47 406.64 264.04 397.88 279.08 358.57 302"/><polygon class="cls-149" points="328.68 319.44 333.27 302 358.57 302 328.68 319.44"/><polygon class="cls-150" points="333.27 302 302 302 302 229.06 349.19 241.47 333.27 302"/><polygon class="cls-151" points="333.27 302 328.68 319.43 307.42 331.84 302 333.27 302 302 333.27 302"/><polygon class="cls-152" points="307.42 331.84 328.68 319.44 326.75 326.75 307.42 331.84"/><polygon class="cls-153" points="326.75 326.75 328.68 319.44 358.57 302 384.5 302 377.91 313.29 326.75 326.75"/><polygon class="cls-154" points="241.47 349.19 229.06 302 302 302 302 333.27 241.47 349.19"/><polygon class="cls-155" points="302 302 229.06 302 203 203 302 229.06 302 302"/><polygon class="cls-156" points="302 333.27 302 335 246.29 367.49 241.47 349.19 302 333.27"/><polygon class="cls-157" points="326.75 326.75 302 420.8 302 335 307.42 331.84 326.75 326.75"/><polygon class="cls-158" points="268.88 453.32 246.28 367.49 302 335 302 420.8 297.9 436.39 268.88 453.32"/><polygon class="cls-159" points="275.49 478.47 268.88 453.32 297.9 436.39 291.15 462.02 290.06 463.89 275.49 478.47"/><polygon class="cls-160" points="277.37 485.63 275.49 478.47 290.06 463.89 277.37 485.63"/><polygon class="cls-161" points="281.15 500 277.37 485.63 290.06 463.89 290.88 463.08 281.15 500"/><polygon class="cls-162" points="731 500 722.63 485.63 724.51 478.47 736.54 490.5 731 500"/><polygon class="cls-163" points="722.63 485.63 709.93 463.89 724.51 478.47 722.63 485.63"/><polygon class="cls-164" points="724.51 478.47 709.93 463.89 708.85 462.02 702.1 436.39 731.12 453.32 724.51 478.47"/><polygon class="cls-142" points="736.54 490.5 724.51 478.47 731.12 453.32 751.35 465.12 736.54 490.5"/><polygon class="cls-165" points="746.04 500 736.54 490.5 751.35 465.12 770.02 476.02 746.04 500"/><polygon class="cls-166" points="736.54 509.5 731 500 736.54 490.5 746.04 500 736.54 509.5"/><polygon class="cls-167" points="709.93 536.11 722.63 514.37 724.51 521.53 709.93 536.11"/><polygon class="cls-168" points="709.12 536.92 718.85 500 722.63 514.37 709.93 536.11 709.12 536.92"/><polygon class="cls-169" points="722.63 514.37 718.85 500 722.63 485.63 731 500 722.63 514.37"/><polygon class="cls-170" points="724.51 521.53 722.63 514.37 731 500 736.54 509.5 724.51 521.53"/><polygon class="cls-171" points="358.57 698 333.27 698 328.68 680.57 358.57 698"/><polygon class="cls-172" points="349.19 758.53 333.27 698 358.57 698 397.88 720.92 406.64 735.96 383.37 749.53 349.19 758.53"/><polygon class="cls-92" points="406.64 735.96 397.88 720.92 415.15 731 406.64 735.96"/><polygon class="cls-173" points="383.37 749.53 406.64 735.96 410.4 742.41 383.37 749.53"/><polygon class="cls-174" points="351.69 768.01 349.19 758.53 383.37 749.53 351.69 768.01"/><polygon class="cls-175" points="378.01 868.03 374.27 853.84 417.31 828.74 378.01 868.03"/><polygon class="cls-176" points="374.27 853.84 351.69 768.01 383.37 749.53 410.4 742.41 444.75 801.29 417.31 828.74 374.27 853.84"/><polygon class="cls-177" points="410.4 742.41 406.64 735.96 415.15 731 427.17 738.01 410.4 742.41"/><polygon class="cls-178" points="444.75 801.29 410.4 742.41 427.17 738.01 478.23 767.81 444.75 801.29"/><polygon class="cls-179" points="478.23 767.81 427.17 738.01 478.47 724.51 500 746.04 478.23 767.81"/><polygon class="cls-180" points="397.88 720.92 358.57 698 384.5 698 397.88 720.92"/><polygon class="cls-181" points="384.5 698 358.57 698 328.68 680.57 326.75 673.25 377.91 686.71 384.5 698"/><polygon class="cls-182" points="415.15 731 397.88 720.92 384.5 698 420.8 698 455.89 707.23 415.15 731"/><polygon class="cls-99" points="415.15 731 455.89 707.23 463.08 709.12 478.47 724.51 427.17 738.01 415.15 731"/><polygon class="cls-183" points="478.47 724.51 463.08 709.12 500 718.85 478.47 724.51"/><polygon class="cls-184" points="500 746.04 478.47 724.51 500 718.85 521.53 724.51 500 746.04"/><polygon class="cls-185" points="521.53 724.51 500 718.85 536.92 709.12 521.53 724.51"/><polygon class="cls-186" points="540.77 705.27 528.28 698 548.04 698 540.77 705.27"/><polygon class="cls-187" points="548.04 698 528.28 698 500 681.5 654.91 591.13 548.04 698"/><polygon class="cls-188" points="459.23 705.27 471.72 698 528.28 698 540.77 705.27 536.92 709.12 500 718.85 463.08 709.12 459.23 705.27"/><polygon class="cls-189" points="459.23 705.27 451.96 698 471.72 698 459.23 705.27"/><polygon class="cls-190" points="420.8 698 451.96 698 459.23 705.27 455.89 707.23 420.8 698"/><polygon class="cls-191" points="528.28 698 471.72 698 500 681.5 528.28 698"/><polygon class="cls-192" points="471.72 698 451.96 698 345.09 591.13 500 681.5 471.72 698"/><polygon class="cls-193" points="377.91 686.71 326.75 673.25 302 579.2 302 566 310.33 570.87 377.91 686.71"/><polygon class="cls-194" points="310.33 570.87 302 566 302 556.57 310.33 570.87"/><polygon class="cls-109" points="420.8 698 384.5 698 377.91 686.71 420.8 698"/><polygon class="cls-195" points="451.96 698 420.8 698 377.91 686.71 310.33 570.87 345.09 591.13 451.96 698"/><polygon class="cls-21" points="302 566 297.9 563.61 291.15 537.98 302 556.57 302 566"/><polygon class="cls-81" points="302 548.04 290.88 536.92 281.15 500 290.88 463.08 302 451.96 302 548.04"/><polygon class="cls-196" points="290.88 463.08 291.15 462.02 302 443.43 302 451.96 290.88 463.08"/><polygon class="cls-197" points="291.15 462.02 297.9 436.39 302 434 302 443.43 291.15 462.02"/><polygon class="cls-198" points="302 434 302 420.8 326.75 326.75 377.91 313.29 310.33 429.13 302 434"/><polygon class="cls-199" points="302 451.96 302 443.43 310.33 429.13 345.09 408.87 302 451.96"/><polygon class="cls-200" points="377.91 313.29 384.5 302 420.8 302 377.91 313.29"/><polygon class="cls-201" points="310.33 429.13 377.91 313.29 420.8 302 451.96 302 345.09 408.87 310.33 429.13"/><polygon class="cls-202" points="420.8 302 455.89 292.77 459.23 294.73 451.96 302 420.8 302"/><polygon class="cls-203" points="471.72 302 451.96 302 459.23 294.73 471.72 302"/><polygon class="cls-204" points="459.23 294.73 463.08 290.88 500 281.15 536.92 290.88 540.77 294.73 528.28 302 471.72 302 459.23 294.73"/><polygon class="cls-205" points="548.04 302 528.28 302 540.77 294.73 548.04 302"/><polygon class="cls-206" points="540.77 294.73 544.11 292.77 579.2 302 548.04 302 540.77 294.73"/><polygon class="cls-207" points="698 434 689.67 429.13 622.09 313.29 673.25 326.75 698 420.8 698 434"/><polygon class="cls-208" points="500 318.5 471.72 302 528.28 302 500 318.5"/><polygon class="cls-209" points="689.67 429.13 654.91 408.87 548.04 302 579.2 302 622.09 313.29 689.67 429.13"/><polygon class="cls-210" points="698 451.96 654.91 408.87 689.67 429.13 698 443.43 698 451.96"/><polygon class="cls-211" points="698 548.04 698 451.96 709.12 463.08 718.85 500 709.12 536.92 698 548.04"/><polygon class="cls-212" points="654.91 408.87 500 318.5 528.28 302 548.04 302 654.91 408.87"/></g></svg>