<svg xmlns="http://www.w3.org/2000/svg" xmlns:xlink="http://www.w3.org/1999/xlink" viewBox="0 0 1000 1000"><defs><style>.cls-1,.cls-2,.cls-3,.cls-5,.cls-6{stroke:#fff;stroke-width:20px;}.cls-1,.cls-2,.cls-3,.cls-5,.cls-6,.cls-9{stroke-miterlimit:10;}.cls-1{fill:url(#linear-gradient);}.cls-2{fill:url(#linear-gradient-2);}.cls-3{fill:url(#linear-gradient-3);}.cls-4{fill:url(#linear-gradient-4);}.cls-5{fill:url(#linear-gradient-5);}.cls-6{fill:url(#linear-gradient-6);}.cls-7{fill:#cb70ad;}.cls-8{fill:url(#linear-gradient-7);}.cls-9{fill:none;stroke:#cb70ad;}.cls-10{fill:url(#linear-gradient-8);}.cls-11{fill:url(#linear-gradient-9);}.cls-12{fill:url(#linear-gradient-10);}.cls-13{fill:#d480b5;}.cls-14{fill:#dd7cb2;}.cls-15{fill:#e8a6ca;}.cls-16{fill:#dc93c0;}.cls-17{fill:#d01f36;}.cls-18{fill:#fad1e3;}.cls-19{fill:#f6e3ef;}.cls-20{fill:#fff9d1;}</style><linearGradient id="linear-gradient" x1="75.5" y1="500.75" x2="322.95" y2="500.75" gradientUnits="userSpaceOnUse"><stop offset="0.33" stop-color="#ef60a3"/><stop offset="0.5" stop-color="#e05ca2"/><stop offset="0.83" stop-color="#b9529f"/></linearGradient><linearGradient id="linear-gradient-2" x1="887.56" y1="791.21" x2="512.86" y2="563.72" gradientUnits="userSpaceOnUse"><stop offset="0.29" stop-color="#ef60a3"/><stop offset="0.83" stop-color="#b9529f"/></linearGradient><linearGradient id="linear-gradient-3" x1="897.32" y1="312.52" x2="600.25" y2="457.06" xlink:href="#linear-gradient-2"/><linearGradient id="linear-gradient-4" x1="596.23" y1="784.26" x2="520.26" y2="542.72" gradientUnits="userSpaceOnUse"><stop offset="0.35" stop-color="#d47ea4"/><stop offset="0.58" stop-color="#e599ba"/><stop offset="0.88" stop-color="#f7b7d3"/></linearGradient><linearGradient id="linear-gradient-5" x1="263.37" y1="865.88" x2="441.24" y2="581.77" gradientUnits="userSpaceOnUse"><stop offset="0.1" stop-color="#ef60a3"/><stop offset="0.54" stop-color="#ca56a0"/><stop offset="0.79" stop-color="#b9529f"/></linearGradient><linearGradient id="linear-gradient-6" x1="344.7" y1="91.03" x2="480.97" y2="380.43" gradientUnits="userSpaceOnUse"><stop offset="0.14" stop-color="#ef60a3"/><stop offset="0.32" stop-color="#dd5ba2"/><stop offset="0.64" stop-color="#c355a0"/><stop offset="0.82" stop-color="#b9529f"/></linearGradient><linearGradient id="linear-gradient-7" x1="379.87" y1="189.77" x2="502.72" y2="445.27" xlink:href="#linear-gradient-4"/><linearGradient id="linear-gradient-8" x1="763.07" y1="776.18" x2="643.35" y2="577.73" xlink:href="#linear-gradient-4"/><linearGradient id="linear-gradient-9" x1="255.68" y1="687.33" x2="597.52" y2="329.29" gradientUnits="userSpaceOnUse"><stop offset="0.15" stop-color="#d47ea4"/><stop offset="0.41" stop-color="#e599ba"/><stop offset="0.74" stop-color="#f7b7d3"/></linearGradient><linearGradient id="linear-gradient-10" x1="854.49" y1="488.12" x2="560.93" y2="533.21" xlink:href="#linear-gradient-4"/></defs><g id="Layer_1" data-name="Layer 1"><path class="cls-1" d="M322.35,384.41l-.3,1.28.9-.23Zm0,0-.3,1.28.9-.23Zm0,0-.3,1.28.9-.23Zm0,0-.3,1.28.9-.23Zm0,0-.3,1.28.9-.23Zm0,0-.3,1.28.9-.23Zm0,0-.3,1.28.9-.23Zm0,0-.3,1.28.9-.23Zm0,0-.3,1.28.9-.23Zm0,0-.3,1.28.9-.23Zm0,0-.3,1.28.9-.23Zm0,0-.3,1.28.9-.23Zm0,0-.3,1.28.9-.23Zm0,0-.3,1.28.9-.23Zm0,0-.3,1.28.9-.23Zm0,0-.3,1.28.9-.23Zm0,0-.3,1.28.9-.23Zm0,0-.3,1.28.9-.23ZM260.5,580.5l2.76-19L170,517.06l87.78-56.68L245,446l40.66-38.84,1.84-12.66,15.57-4,14.69-14-14.37-24.79L269.5,346.5l-194,158,185,145,18.7-.53,35.8,6-14.69-68.38Zm61.85-196.09-.3,1.28.9-.23Zm0,0-.3,1.28.9-.23Zm0,0-.3,1.28.9-.23Zm0,0-.3,1.28.9-.23Zm0,0-.3,1.28.9-.23Zm0,0-.3,1.28.9-.23Zm0,0-.3,1.28.9-.23Zm0,0-.3,1.28.9-.23Zm0,0-.3,1.28.9-.23Zm0,0-.3,1.28.9-.23Zm0,0-.3,1.28.9-.23Zm0,0-.3,1.28.9-.23Zm0,0-.3,1.28.9-.23Zm0,0-.3,1.28.9-.23Zm0,0-.3,1.28.9-.23Zm0,0-.3,1.28.9-.23Zm0,0-.3,1.28.9-.23Zm0,0-.3,1.28.9-.23Z"/><path class="cls-2" d="M853,585,744,562l2.87,31.72h0L817.5,681.5,743,681.32,741,728,569,686l-17-4-14-19-10,25-5.35,27.22L536,763l266,55,159-81Z"/><path class="cls-3" d="M734.31,215l-138,99,2.36,8.23L609,335.24h0l25.22,12.57h0L754,305l-18.48,93.29L755,408l-.57,13L774,424l-21.08,31.46h0L732,534l12,30,59.61-47.82,123-244.66Z"/><polygon class="cls-4" points="474 681.05 459.33 672.85 454.18 666.34 447.15 657.47 429.34 634.96 426.84 631.8 431.34 634.91 480.37 633.51 511.19 611.29 602.02 545.8 613.46 537.55 627.52 540.7 642.09 543.96 635.81 575.69 629 610.05 575.35 627.32 604 646 680.04 673.37 678 720.05 485.5 704.07 484.63 704.81 483.94 703.94 479 698.05 474 681.05"/><path class="cls-5" d="M521,670l-45,36-12.75-14.35L310,741l-5.82-92.74-25,.71L223,672,170,773l4,141,222.66-72.47L544,676Z"/><polygon class="cls-6" points="596.27 313.92 592.3 316.76 580.24 319.84 561.39 250.21 405.5 196.5 387.21 264.33 355 244 324 398 303.39 351.71 285.39 320.65 338.73 91.72 563.86 200.88 596.27 313.92"/><polygon class="cls-7" points="580.58 321.07 578.83 320.2 580.24 319.84 580.58 321.07"/><polygon class="cls-8" points="575.24 294.84 556.39 225.21 400.5 171.5 382.21 239.33 350 219 324.04 330.65 317.5 334.5 312.76 351.5 317.35 359.41 317.95 360.46 321 399 448.18 585.14 463.23 587.46 462.02 585.93 584 407 596.26 372.46 586.92 337.95 576.51 299.5 575.24 294.84"/><path class="cls-9" d="M580.24,319.84l-1.41.36,1.75.87Z"/><polygon class="cls-10" points="762 753 656 729 736 601 762 753"/><polygon class="cls-11" points="496 698 466 716 451.25 686.65 298 736 292.18 643.26 291.6 633.97 277 597 248.5 575.5 251.26 556.47 157.99 512.06 245.77 455.38 233 441 273.66 402.16 275.5 389.5 291.07 385.53 305.76 371.5 310.35 379.41 310.05 380.69 317 376 334 404 441.18 605.14 456.23 607.46 482.5 611.5 647.12 528.17 653.02 548.75 562.19 614.24 531.37 636.46 482.34 637.86 477.84 634.75 480.34 637.91 498.15 660.42 505.18 669.29 510.33 675.8 496 698"/><path class="cls-7" d="M322.35,384.41l-.3,1.28.9-.23Z"/><polygon class="cls-12" points="779 424 757.92 455.46 757.92 455.47 755 534 735 565 761 591 869 651 800 714 694 630 695 585 680 583 642 559 664.12 533.17 642.51 457.8 612.5 420.5 606.26 397.46 572 408 573 337 580 314 585 312 601.27 313.92 603.63 322.15 614.02 335.24 614.02 335.25 636 336 662 323 758 302 740.52 398.29 760 408 759.43 420.99 779 424"/><path class="cls-7" d="M322.35,384.41l-.3,1.28.9-.23Z"/><polygon class="cls-13" points="659.12 533.17 494.5 616.5 468.23 612.46 467.02 610.93 504.04 382.53 601.26 397.46 607.5 420.5 637.51 457.8 659.12 533.17"/><polygon class="cls-14" points="738 552 751 573 743.17 661 585.01 660.63 638.48 614.95 692.13 597.68 698.94 563.32 722.62 543.09 738 552"/></g><g id="Layer_2" data-name="Layer 2"><polygon class="cls-15" points="710.06 558.38 576.98 534.82 486.66 597.93 613.1 697 742.27 697.94 828.75 657.18 710.06 558.38"/><polygon class="cls-15" points="406.44 205.57 385.33 326.51 435.24 470.47 530.25 508.86 577.28 405.21 532.17 285.24 406.44 205.57"/><polygon class="cls-15" points="761.36 330.3 629.3 353.53 499.96 458.26 495.81 570.12 619.75 579.92 726.23 489.04 761.36 330.3"/><polygon class="cls-15" points="452.74 432.13 318.26 408.32 227 472.09 354.77 572.2 485.29 573.15 572.67 531.96 452.74 432.13"/><polygon class="cls-15" points="302.33 751.97 427.46 717.61 522 636.66 522.85 554.06 430.05 550.39 352.32 620.47 305.47 661.45 302.33 751.97"/></g><g id="Layer_6" data-name="Layer 6"><polygon class="cls-16" points="508 406 483 453 436 498 469 546 464 595 533 568 612 595 597 546 602 476 543 449 508 406"/></g><g id="Layer_4" data-name="Layer 4"><polygon class="cls-17" points="441.53 280.5 511.11 342.95 528.05 441.07 457.58 413.42 420.12 314.4 441.53 280.5"/><polygon class="cls-18" points="475.42 463.37 363.92 445.53 308.62 470.51 378.19 517.78 475.42 530.27 495.05 495.48 475.42 463.37"/><polygon class="cls-18" points="618.17 513.48 687.86 466.71 714.67 392.67 634.1 411.63 559.21 469.6 560.25 501.09 618.17 513.48"/><polygon class="cls-19" points="601.7 619.66 668.72 657.58 745.52 643.61 688.4 590.13 605.26 552.49 570.25 569.18 601.7 619.66"/><polygon class="cls-19" points="461 560 396 612 364 688 454 663 527.05 588.24 521.72 557.18 461 560"/></g><g id="Layer_3" data-name="Layer 3"><polygon class="cls-20" points="528.05 499.05 515.57 414.31 483.45 370.6 492.37 421.44 528.05 499.05"/><polygon class="cls-20" points="523.54 509.28 586.19 450.87 603.93 399.62 567.15 435.84 523.54 509.28"/><polygon class="cls-20" points="535.88 514.77 467.4 449.1 412.09 438.39 445.99 473.18 535.88 514.77"/></g></svg>