<?xml version="1.0" encoding="UTF-8"?>
<svg id="Layer_2" data-name="Layer 2" xmlns="http://www.w3.org/2000/svg" viewBox="0 0 1321.88 1321.88">
  <defs>
    <style>
      .cls-1 {
        fill: #fff;
      }
    </style>
  </defs>
  <g id="icon">
    <g>
      <rect x="0" y="0" width="1321.88" height="1321.88" rx="660.94" ry="660.94"/>
      <g>
        <path class="cls-1" d="M822.69,278.31H499.19c-121.99,0-220.88,98.89-220.88,220.88v323.5c0,122,98.89,220.88,220.88,220.88h323.5c121.99,0,220.88-98.88,220.88-220.88V499.19c0-121.99-98.89-220.88-220.88-220.88m150.41,550.06c0,80.98-65.64,146.62-146.63,146.62H495.4c-80.97,0-146.62-65.64-146.62-146.62V497.31c0-80.99,65.65-146.62,146.62-146.62h331.06c80.98,0,146.63,65.63,146.63,146.62v331.06Z"/>
        <path class="cls-1" d="M660.93,464.28c-109.66,0-198.56,88.89-198.56,198.56s88.9,198.56,198.56,198.56,198.56-88.9,198.56-198.56-88.9-198.56-198.56-198.56m0,327.27c-71.09,0-128.71-57.63-128.71-128.72s57.63-128.7,128.71-128.7,128.71,57.62,128.71,128.7-57.62,128.72-128.71,128.72"/>
        <circle class="cls-1" cx="867.03" cy="445.96" r="35.01" transform="translate(-61.39 743.7) rotate(-45)"/>
      </g>
    </g>
  </g>
</svg>