{
	"asset":{
		"generator":"Khronos glTF Blender I/O v3.5.30",
		"version":"2.0"
	},
	"extensionsUsed":[
		"KHR_materials_specular",
		"KHR_materials_ior"
	],
	"scene":0,
	"scenes":[
		{
			"name":"Scene",
			"nodes":[
				0,
				1
			]
		}
	],
	"nodes":[
		{
			"mesh":0,
			"name":"Paper_Plane",
			"rotation":[
				0.7071068286895752,
				0,
				0,
				0.7071068286895752
			],
			"translation":[
				0,
				0.6920427680015564,
				0
			]
		},
		{
			"mesh":1,
			"name":"Curve.001",
			"rotation":[
				0.09431684017181396,
				-0.1105707660317421,
				-0.16296356916427612,
				0.9758695363998413
			],
			"scale":[
				1.9487800598144531,
				1.871386170387268,
				1.9487799406051636
			],
			"translation":[
				-0.7330005764961243,
				0.15632887184619904,
				0.4228990972042084
			]
		}
	],
	"materials":[
		{
			"doubleSided":true,
			"name":"Left_Wing",
			"pbrMetallicRoughness":{
				"baseColorFactor":[
					0.06847788393497467,
					0.19806915521621704,
					0.26635560393333435,
					1
				],
				"metallicFactor":0,
				"roughnessFactor":0.5
			}
		},
		{
			"doubleSided":true,
			"name":"Right_Wing",
			"pbrMetallicRoughness":{
				"baseColorFactor":[
					0.863157331943512,
					0.14995954930782318,
					0.0843762680888176,
					1
				],
				"metallicFactor":0,
				"roughnessFactor":0.5
			}
		},
		{
			"doubleSided":true,
			"name":"Left_Base",
			"pbrMetallicRoughness":{
				"baseColorFactor":[
					0.00856804195791483,
					0.030713405460119247,
					0.09989871829748154,
					1
				],
				"metallicFactor":0,
				"roughnessFactor":0.5
			}
		},
		{
			"alphaMode":"BLEND",
			"doubleSided":true,
			"name":"Right_Base",
			"pbrMetallicRoughness":{
				"baseColorFactor":[
					0.3563992977142334,
					0.665386974811554,
					0.6038272976875305,
					1
				],
				"metallicFactor":0,
				"roughnessFactor":0.5
			}
		},
		{
			"doubleSided":true,
			"emissiveFactor":[
				0.17135724857849421,
				0.09951512492024595,
				0.010698526821396714
			],
			"extensions":{
				"KHR_materials_specular":{
					"specularColorFactor":[
						1.8237821688427587,
						1.5763590695486316,
						0.8682541035237399
					]
				},
				"KHR_materials_ior":{
					"ior":1.4500000476837158
				}
			},
			"name":"Material",
			"pbrMetallicRoughness":{
				"baseColorFactor":[
					0.8713665008544922,
					0.6670569181442261,
					0.08233936131000519,
					1
				],
				"roughnessFactor":0.7837837934494019
			}
		}
	],
	"meshes":[
		{
			"name":"Plane",
			"primitives":[
				{
					"attributes":{
						"POSITION":0,
						"TEXCOORD_0":1,
						"NORMAL":2
					},
					"indices":3,
					"material":0
				},
				{
					"attributes":{
						"POSITION":4,
						"TEXCOORD_0":5,
						"NORMAL":6
					},
					"indices":7,
					"material":1
				},
				{
					"attributes":{
						"POSITION":8,
						"TEXCOORD_0":9,
						"NORMAL":10
					},
					"indices":11,
					"material":2
				},
				{
					"attributes":{
						"POSITION":12,
						"TEXCOORD_0":13,
						"NORMAL":14
					},
					"indices":15,
					"material":3
				}
			]
		},
		{
			"name":"Curve.006",
			"primitives":[
				{
					"attributes":{
						"POSITION":16,
						"TEXCOORD_0":17,
						"NORMAL":18
					},
					"indices":19,
					"material":4
				}
			]
		}
	],
	"accessors":[
		{
			"bufferView":0,
			"componentType":5126,
			"count":19,
			"max":[
				1.0030184984207153,
				4.8840075095313296e-08,
				0.9999999403953552
			],
			"min":[
				-1,
				-0.7761847376823425,
				0.3814913034439087
			],
			"type":"VEC3"
		},
		{
			"bufferView":1,
			"componentType":5126,
			"count":19,
			"type":"VEC2"
		},
		{
			"bufferView":2,
			"componentType":5126,
			"count":19,
			"type":"VEC3"
		},
		{
			"bufferView":3,
			"componentType":5123,
			"count":27,
			"type":"SCALAR"
		},
		{
			"bufferView":4,
			"componentType":5126,
			"count":23,
			"max":[
				1.0030184984207153,
				0.7761848568916321,
				0.9999999403953552
			],
			"min":[
				-1,
				4.8840075095313296e-08,
				0.3814913034439087
			],
			"type":"VEC3"
		},
		{
			"bufferView":5,
			"componentType":5126,
			"count":23,
			"type":"VEC2"
		},
		{
			"bufferView":6,
			"componentType":5126,
			"count":23,
			"type":"VEC3"
		},
		{
			"bufferView":7,
			"componentType":5123,
			"count":33,
			"type":"SCALAR"
		},
		{
			"bufferView":8,
			"componentType":5126,
			"count":18,
			"max":[
				1,
				4.8840075095313296e-08,
				1.002744197845459
			],
			"min":[
				-1,
				-0.1834869533777237,
				0.3907397985458374
			],
			"type":"VEC3"
		},
		{
			"bufferView":9,
			"componentType":5126,
			"count":18,
			"type":"VEC2"
		},
		{
			"bufferView":10,
			"componentType":5126,
			"count":18,
			"type":"VEC3"
		},
		{
			"bufferView":11,
			"componentType":5123,
			"count":24,
			"type":"SCALAR"
		},
		{
			"bufferView":12,
			"componentType":5126,
			"count":18,
			"max":[
				1,
				0.18348707258701324,
				1.002744197845459
			],
			"min":[
				-1,
				0,
				0.3907397985458374
			],
			"type":"VEC3"
		},
		{
			"bufferView":13,
			"componentType":5126,
			"count":18,
			"type":"VEC2"
		},
		{
			"bufferView":14,
			"componentType":5126,
			"count":18,
			"type":"VEC3"
		},
		{
			"bufferView":15,
			"componentType":5123,
			"count":24,
			"type":"SCALAR"
		},
		{
			"bufferView":16,
			"componentType":5126,
			"count":102,
			"max":[
				0.049860820174217224,
				0.011586506851017475,
				0.08615368604660034
			],
			"min":[
				-0.06610383093357086,
				0,
				-0.10148832201957703
			],
			"type":"VEC3"
		},
		{
			"bufferView":17,
			"componentType":5126,
			"count":102,
			"type":"VEC2"
		},
		{
			"bufferView":18,
			"componentType":5126,
			"count":102,
			"type":"VEC3"
		},
		{
			"bufferView":19,
			"componentType":5123,
			"count":144,
			"type":"SCALAR"
		}
	],
	"bufferViews":[
		{
			"buffer":0,
			"byteLength":228,
			"byteOffset":0,
			"target":34962
		},
		{
			"buffer":0,
			"byteLength":152,
			"byteOffset":228,
			"target":34962
		},
		{
			"buffer":0,
			"byteLength":228,
			"byteOffset":380,
			"target":34962
		},
		{
			"buffer":0,
			"byteLength":54,
			"byteOffset":608,
			"target":34963
		},
		{
			"buffer":0,
			"byteLength":276,
			"byteOffset":664,
			"target":34962
		},
		{
			"buffer":0,
			"byteLength":184,
			"byteOffset":940,
			"target":34962
		},
		{
			"buffer":0,
			"byteLength":276,
			"byteOffset":1124,
			"target":34962
		},
		{
			"buffer":0,
			"byteLength":66,
			"byteOffset":1400,
			"target":34963
		},
		{
			"buffer":0,
			"byteLength":216,
			"byteOffset":1468,
			"target":34962
		},
		{
			"buffer":0,
			"byteLength":144,
			"byteOffset":1684,
			"target":34962
		},
		{
			"buffer":0,
			"byteLength":216,
			"byteOffset":1828,
			"target":34962
		},
		{
			"buffer":0,
			"byteLength":48,
			"byteOffset":2044,
			"target":34963
		},
		{
			"buffer":0,
			"byteLength":216,
			"byteOffset":2092,
			"target":34962
		},
		{
			"buffer":0,
			"byteLength":144,
			"byteOffset":2308,
			"target":34962
		},
		{
			"buffer":0,
			"byteLength":216,
			"byteOffset":2452,
			"target":34962
		},
		{
			"buffer":0,
			"byteLength":48,
			"byteOffset":2668,
			"target":34963
		},
		{
			"buffer":0,
			"byteLength":1224,
			"byteOffset":2716,
			"target":34962
		},
		{
			"buffer":0,
			"byteLength":816,
			"byteOffset":3940,
			"target":34962
		},
		{
			"buffer":0,
			"byteLength":1224,
			"byteOffset":4756,
			"target":34962
		},
		{
			"buffer":0,
			"byteLength":288,
			"byteOffset":5980,
			"target":34963
		}
	],
	"buffers":[
		{
			"byteLength":6268,
			"uri":"data:application/octet-stream;base64,"
		}
	]
}
