{
	"asset":{
		"generator":"Khronos glTF Blender I/O v3.5.30",
		"version":"2.0"
	},
	"scene":0,
	"scenes":[
		{
			"name":"Scene",
			"nodes":[
				0
			]
		}
	],
	"nodes":[
		{
			"mesh":0,
			"name":"Paper_Plane",
			"rotation":[
				0.7071068286895752,
				0,
				0,
				0.7071068286895752
			],
			"translation":[
				0,
				0.6920427680015564,
				0
			]
		}
	],
	"materials":[
		{
			"doubleSided":true,
			"name":"Left_Wing",
			"pbrMetallicRoughness":{
				"baseColorFactor":[
					0.06847788393497467,
					0.19806915521621704,
					0.26635560393333435,
					1
				],
				"metallicFactor":0,
				"roughnessFactor":0.5
			}
		},
		{
			"doubleSided":true,
			"name":"Right_Wing",
			"pbrMetallicRoughness":{
				"baseColorFactor":[
					0.863157331943512,
					0.14995954930782318,
					0.0843762680888176,
					1
				],
				"metallicFactor":0,
				"roughnessFactor":0.5
			}
		},
		{
			"doubleSided":true,
			"name":"Left_Base",
			"pbrMetallicRoughness":{
				"baseColorFactor":[
					0.00856804195791483,
					0.030713405460119247,
					0.09989871829748154,
					1
				],
				"metallicFactor":0,
				"roughnessFactor":0.5
			}
		},
		{
			"doubleSided":true,
			"name":"Right_Base",
			"pbrMetallicRoughness":{
				"baseColorFactor":[
					0.3563992977142334,
					0.665386974811554,
					0.6038272976875305,
					1
				],
				"metallicFactor":0,
				"roughnessFactor":0.5
			}
		}
	],
	"meshes":[
		{
			"name":"Plane",
			"primitives":[
				{
					"attributes":{
						"POSITION":0,
						"TEXCOORD_0":1,
						"NORMAL":2
					},
					"indices":3,
					"material":0
				},
				{
					"attributes":{
						"POSITION":4,
						"TEXCOORD_0":5,
						"NORMAL":6
					},
					"indices":7,
					"material":1
				},
				{
					"attributes":{
						"POSITION":8,
						"TEXCOORD_0":9,
						"NORMAL":10
					},
					"indices":11,
					"material":2
				},
				{
					"attributes":{
						"POSITION":12,
						"TEXCOORD_0":13,
						"NORMAL":14
					},
					"indices":15,
					"material":3
				}
			]
		}
	],
	"accessors":[
		{
			"bufferView":0,
			"componentType":5126,
			"count":19,
			"max":[
				1.0030184984207153,
				4.8840075095313296e-08,
				0.9999999403953552
			],
			"min":[
				-1,
				-0.7761847376823425,
				0.3814913034439087
			],
			"type":"VEC3"
		},
		{
			"bufferView":1,
			"componentType":5126,
			"count":19,
			"type":"VEC2"
		},
		{
			"bufferView":2,
			"componentType":5126,
			"count":19,
			"type":"VEC3"
		},
		{
			"bufferView":3,
			"componentType":5123,
			"count":27,
			"type":"SCALAR"
		},
		{
			"bufferView":4,
			"componentType":5126,
			"count":23,
			"max":[
				1.0030184984207153,
				0.7761848568916321,
				0.9999999403953552
			],
			"min":[
				-1,
				4.8840075095313296e-08,
				0.3814913034439087
			],
			"type":"VEC3"
		},
		{
			"bufferView":5,
			"componentType":5126,
			"count":23,
			"type":"VEC2"
		},
		{
			"bufferView":6,
			"componentType":5126,
			"count":23,
			"type":"VEC3"
		},
		{
			"bufferView":7,
			"componentType":5123,
			"count":33,
			"type":"SCALAR"
		},
		{
			"bufferView":8,
			"componentType":5126,
			"count":18,
			"max":[
				1,
				4.8840075095313296e-08,
				1.002744197845459
			],
			"min":[
				-1,
				-0.1834869533777237,
				0.3907397985458374
			],
			"type":"VEC3"
		},
		{
			"bufferView":9,
			"componentType":5126,
			"count":18,
			"type":"VEC2"
		},
		{
			"bufferView":10,
			"componentType":5126,
			"count":18,
			"type":"VEC3"
		},
		{
			"bufferView":11,
			"componentType":5123,
			"count":24,
			"type":"SCALAR"
		},
		{
			"bufferView":12,
			"componentType":5126,
			"count":18,
			"max":[
				1,
				0.18348707258701324,
				1.002744197845459
			],
			"min":[
				-1,
				0,
				0.3907397985458374
			],
			"type":"VEC3"
		},
		{
			"bufferView":13,
			"componentType":5126,
			"count":18,
			"type":"VEC2"
		},
		{
			"bufferView":14,
			"componentType":5126,
			"count":18,
			"type":"VEC3"
		},
		{
			"bufferView":15,
			"componentType":5123,
			"count":24,
			"type":"SCALAR"
		}
	],
	"bufferViews":[
		{
			"buffer":0,
			"byteLength":228,
			"byteOffset":0,
			"target":34962
		},
		{
			"buffer":0,
			"byteLength":152,
			"byteOffset":228,
			"target":34962
		},
		{
			"buffer":0,
			"byteLength":228,
			"byteOffset":380,
			"target":34962
		},
		{
			"buffer":0,
			"byteLength":54,
			"byteOffset":608,
			"target":34963
		},
		{
			"buffer":0,
			"byteLength":276,
			"byteOffset":664,
			"target":34962
		},
		{
			"buffer":0,
			"byteLength":184,
			"byteOffset":940,
			"target":34962
		},
		{
			"buffer":0,
			"byteLength":276,
			"byteOffset":1124,
			"target":34962
		},
		{
			"buffer":0,
			"byteLength":66,
			"byteOffset":1400,
			"target":34963
		},
		{
			"buffer":0,
			"byteLength":216,
			"byteOffset":1468,
			"target":34962
		},
		{
			"buffer":0,
			"byteLength":144,
			"byteOffset":1684,
			"target":34962
		},
		{
			"buffer":0,
			"byteLength":216,
			"byteOffset":1828,
			"target":34962
		},
		{
			"buffer":0,
			"byteLength":48,
			"byteOffset":2044,
			"target":34963
		},
		{
			"buffer":0,
			"byteLength":216,
			"byteOffset":2092,
			"target":34962
		},
		{
			"buffer":0,
			"byteLength":144,
			"byteOffset":2308,
			"target":34962
		},
		{
			"buffer":0,
			"byteLength":216,
			"byteOffset":2452,
			"target":34962
		},
		{
			"buffer":0,
			"byteLength":48,
			"byteOffset":2668,
			"target":34963
		}
	],
	"buffers":[
		{
			"byteLength":2716,
			"uri":"data:application/octet-stream;base64,"
		}
	]
}
