<?xml version="1.0" encoding="UTF-8"?>
<svg id="Layer_1" data-name="Layer 1" xmlns="http://www.w3.org/2000/svg" xmlns:xlink="http://www.w3.org/1999/xlink" viewBox="0 0 2051.91 2089.87">
  <defs>
    <style>
      .cls-1 {
        fill: url(#linear-gradient-2);
      }

      .cls-2 {
        fill: #f7d5ab;
      }

      .cls-3 {
        fill: url(#linear-gradient-6);
      }

      .cls-4 {
        clip-path: url(#clippath-2);
      }

      .cls-5 {
        clip-path: url(#clippath-1);
      }

      .cls-6 {
        fill: url(#linear-gradient-5);
      }

      .cls-7 {
        clip-path: url(#clippath);
      }

      .cls-8 {
        fill: none;
      }

      .cls-9 {
        clip-path: url(#clippath-3);
      }

      .cls-10 {
        fill: url(#linear-gradient-3);
      }

      .cls-11 {
        fill: url(#linear-gradient);
      }

      .cls-12 {
        fill: url(#linear-gradient-4);
      }
    </style>
    <clipPath id="clippath">
      <rect class="cls-8" width="2048" height="2048"/>
    </clipPath>
    <linearGradient id="linear-gradient" x1="726.69" y1="870.14" x2="1474.07" y2="1617.53" gradientUnits="userSpaceOnUse">
      <stop offset=".29" stop-color="#ffe5c0"/>
      <stop offset=".52" stop-color="#fce0b9"/>
      <stop offset=".83" stop-color="#f5d3a8"/>
      <stop offset="1" stop-color="#f0ca9c"/>
    </linearGradient>
    <clipPath id="clippath-1">
      <rect class="cls-8" x="3.91" y=".78" width="2048" height="2048"/>
    </clipPath>
    <linearGradient id="linear-gradient-2" x1="816.04" y1="1405.9" x2="1353.44" y2="868.5" gradientUnits="userSpaceOnUse">
      <stop offset=".22" stop-color="#ffe5c0"/>
      <stop offset=".57" stop-color="#f0ca9c"/>
    </linearGradient>
    <linearGradient id="linear-gradient-3" x1="903.1" y1="1922.73" x2="1464.55" y2="1361.28" gradientUnits="userSpaceOnUse">
      <stop offset="0" stop-color="#ffe5c0"/>
      <stop offset=".04" stop-color="#fcdfb9"/>
      <stop offset=".19" stop-color="#f5d3a8"/>
      <stop offset=".35" stop-color="#f1cc9f"/>
      <stop offset=".56" stop-color="#f0ca9c"/>
    </linearGradient>
    <clipPath id="clippath-2">
      <rect class="cls-8" x="3.91" y="41.87" width="2048" height="2048"/>
    </clipPath>
    <linearGradient id="linear-gradient-4" x1="1041.57" y1="1699.18" x2="1041.57" y2="1378.7" gradientUnits="userSpaceOnUse">
      <stop offset="0" stop-color="#5c0200"/>
      <stop offset=".22" stop-color="#640504"/>
      <stop offset=".57" stop-color="#7a0e0f"/>
      <stop offset=".89" stop-color="#941a1d"/>
    </linearGradient>
    <linearGradient id="linear-gradient-5" x1="1173.91" y1="1711.36" x2="911.69" y2="1449.14" gradientUnits="userSpaceOnUse">
      <stop offset="0" stop-color="#f15b57"/>
      <stop offset=".27" stop-color="#ec6361"/>
      <stop offset=".74" stop-color="#e1797e"/>
      <stop offset=".8" stop-color="#e07d83"/>
    </linearGradient>
    <clipPath id="clippath-3">
      <rect class="cls-8" x="3.91" y=".78" width="2048" height="2048"/>
    </clipPath>
    <linearGradient id="linear-gradient-6" x1="1419.07" y1="1337.87" x2="643.34" y2="562.14" gradientUnits="userSpaceOnUse">
      <stop offset="0" stop-color="#231f20"/>
      <stop offset=".48" stop-color="#2e2b2c"/>
      <stop offset="1" stop-color="#363436"/>
    </linearGradient>
  </defs>
  <g class="cls-7">
    <path class="cls-11" d="m611.35,1429.57s5.87,255.91,174.16,333.53c0,0,302.93-63.08,501.11,0,0,0,162.92-3.66,189-332.22,0,0,176.43,36.26,187.83-117.59,0,0,7.04-168.66-136.17-138.98l-5.87-363.4-717.64,52.56-166.89,96.48-88.66,200.78s-113.1-47.69-132.99,96.48c-9.32,209.91,196.12,172.34,196.12,172.34"/>
  </g>
  <g class="cls-5">
    <path class="cls-2" d="m605.18,1262.33s11.13,134.16,11.13,141.02-177.19,32.87-175.96-127.96c0,0-.54-81.51,61.89-106.83"/>
    <path class="cls-2" d="m1483.44,1245.79l-3.67,161.07s152.09,40.85,168.53-92.79c0,0,9.39-121.15-96.53-120.18"/>
  </g>
  <path class="cls-1" d="m1481.25,1268.45l1.81-4.92s56.06-308.68-221.21-323.88c0,0-299.53-54.97-401.4,147.91,0,0-43.18-1.98-65.19-139.55,0,0-209.16,37.93-189.59,315.52,0,0,110.24-260.42,140.91-246.42,8.77,15.52,24.62,39.16,51.17,61.08,25.45,21.02,50.51,32.02,67.06,37.81,138.66-127.23,328.86-153.13,462.22-72,113.42,69,146.46,191.53,154.22,224.44Z"/>
  <path class="cls-10" d="m1479.53,1431.66c-8.19,15.02-22.01,40.46-38.95,72.13-71.77,134.24-81.9,160.68-112.67,182.67-25.02,17.88-67.25,20.39-150.67,24.67-155.77,7.99-209.28-12.63-304.67,16.67-37.65,11.56-66.55,26.22-84,36,74.24-12.4,137.45-18.96,185.33-22.67,136.05-10.54,198.26-1.98,216,.67,43.4,6.47,78.67,15.93,102.67,23.33,12.94-2.79,32.12-8.28,52.67-20,75.67-43.16,99.87-130.87,116-189.33,7.99-28.96,16.9-71.29,18.28-124.13Z"/>
  <g class="cls-4">
    <path class="cls-12" d="m761.6,1411.57c120.85-43.69,414.08-44.29,558.53.95,0,0,53.06,278.98-274.38,286.65-326.24.7-284.15-287.6-284.15-287.6"/>
    <path class="cls-6" d="m1296.53,1573.18s-41.83,122.73-252.18,126c-204.96,3.52-255.47-127.22-255.47-127.22,270.69-156.73,507.65,1.23,507.65,1.23Z"/>
  </g>
  <g class="cls-9">
    <path class="cls-3" d="m474.53,1125.33c16.57,97.64,131.15,138.2,131.15,138.2,0,0-23.28-249.14,189.59-315.52,0,0,10.43,123.9,65.19,139.55,0,0,103.47-181.96,401.4-147.91,0,0,258.5-2.35,221.21,323.88,0,0,135.5-51.52,106.82-333.14,0,0-39-254.88-210.13-346.31,0,0-248.87-135-242.89-298.4,0,0-156.46,166.89-46.94,268.58,0,0-138.2-75.62-273.8,7.82,0,0-139.97,84.99-235.86,76.44,0,0,48.37,39.01,7.68,90.66-34.04,36.39-56.8,38.87-56.8,38.87-10.17,1.37-56.35,14.67-46.3-45.84-122.35,101.21-117.65,291.58-10.3,403.11"/>
  </g>
  <polygon points="938.5 1229.61 938.5 1257.78 734.74 1350.74 711.55 1327.26 903.71 1243.7 711.55 1131.18 734.74 1109.87 938.5 1229.61"/>
  <polygon points="1134.16 1228.82 1134.05 1257 1337.46 1350.73 1360.74 1327.35 1168.9 1243.04 1361.5 1131.27 1338.39 1109.87 1134.16 1228.82"/>
</svg>