<?xml version="1.0" encoding="UTF-8"?>
<svg xmlns="http://www.w3.org/2000/svg" viewBox="0 0 2048 2048">
  <defs>
    <style>
      .cls-1 {
        fill: #fed7a9;
      }

      .cls-2 {
        fill: #fee3bf;
      }

      .cls-3 {
        fill: #ffe5c0;
      }
    </style>
  </defs>
  <g id="Layer_5" data-name="Layer 5">
    <polyline class="cls-1" points="526.83 1437.78 -29.61 2024.74 -29.61 2193.78 491.61 2193.78 942.07 1670.22"/>
    <path class="cls-1" d="m912.91,1711.73s-327.41,43.11-429.53-228.11L-29.61,2024.74v169.04H491.61"/>
    <path class="cls-2" d="m509.71,1492.36L-29.61,2069.35l269.66,100.96,376.99-122.3,295.87-336.27s-338.15,4.26-403.2-219.37"/>
  </g>
  <g id="Layer_2" data-name="Layer 2">
    <path class="cls-3" d="m912.91,1711.73s-479.55,34.09-438.64-479.55c0,0,18.18-143.18,65.91-172.73,0,0,118.18-286.36,106.82-311.36,0,0,107.65-191.53,146.88,0,0,0-1.43,165.45-37.79,275.91l356.82-482.73s61.36-59.09,97.73,0c0,0,52.27,47.73,0,134.09l-234.09,329.55s-15.91,29.09,15.91,19.09l277.27-400.91s52.27-61.36,109.09-20.45c0,0,68.18,56.82,11.36,109.09l-265.91,387.68s-2.27,20.61,20.45,14.19l234.09-342.78s45.45-54.55,95.45-15.91c0,0,61.36,50,20.45,104.55l-252.27,365.91s-11.36,27.27,20.45,20.45l186.36-261.36s47.73-52.27,95.45-6.82c0,0,61.36,52.27,11.36,109.09l-275,406.82s-168.18,270.45-368.18,218.18Z"/>
  </g>
  <g id="Layer_3" data-name="Layer 3">
    <path class="cls-1" d="m756.09,1024s279.55,217.27,81.82,494.55c0,0,281.91-218.64-81.82-494.55Z"/>
  </g>
  <g id="Layer_4" data-name="Layer 4">
    <path class="cls-1" d="m497,1459.89s-60.57-252.19,101.43-407.15l93.91-271.17s1.85-51.69,101.53-33.47c0,0-27.58-192.31-146.88,0l-112.16,306.02s-119.31,128.53-37.84,405.77Z"/>
    <path class="cls-1" d="m801.77,1061.25l351.93-445.21s63.69-37.73,79.25,0c0,0,9.97-59.87-15.38-81.7,0,0-49.78-58-104.65,6.93l-356.82,482.73"/>
    <path class="cls-1" d="m992.45,1024s55.28,28.48,88.15-17.91l257.39-366.57s45.8-18.98,58.26-14.04c0,0-44.78-86.58-126.54-2.39l-277.27,400.91Z"/>
    <path class="cls-1" d="m1144.73,1113.6s55.92,30.7,80.58-6.86l221.87-315.78s25.49-20.67,45.61-15.62c0,0-42.63-78.66-113.97-4.52l-234.09,342.78Z"/>
    <path class="cls-1" d="m1262.91,1245.82s52.79,34.6,78.61,0l164.35-227.12s34.65-34.13,55.47-21.76c0,0-52.45-77.24-112.07-12.48l-186.36,261.36Z"/>
  </g>
</svg>