<svg id="Layer_2" data-name="Layer 2" xmlns="http://www.w3.org/2000/svg" xmlns:xlink="http://www.w3.org/1999/xlink" viewBox="0 0 2048 2048"><defs><style>.cls-1{fill:none;}.cls-2{fill:url(#linear-gradient);}.cls-3{fill:#ecc093;}.cls-4{fill:url(#linear-gradient-2);}.cls-5{fill:url(#linear-gradient-3);}.cls-6{fill:url(#linear-gradient-4);}.cls-7{clip-path:url(#clip-path);}.cls-8{clip-path:url(#clip-path-2);}.cls-9{fill:url(#linear-gradient-5);}.cls-10{clip-path:url(#clip-path-4);}.cls-11{fill:url(#linear-gradient-6);}.cls-12{clip-path:url(#clip-path-5);}.cls-13{fill:url(#linear-gradient-7);}.cls-14{clip-path:url(#clip-path-7);}.cls-15{fill:url(#linear-gradient-8);}.cls-16{opacity:0.25;}</style><linearGradient id="linear-gradient" x1="737.79" y1="1080.74" x2="643.57" y2="837.67" gradientTransform="matrix(-1, 0, 0, 1, 2063.65, 0)" gradientUnits="userSpaceOnUse"><stop offset="0" stop-color="#ffe5c0"/><stop offset="0.26" stop-color="#fbdfba"/><stop offset="0.61" stop-color="#efd0a8"/><stop offset="0.82" stop-color="#e6c49a"/></linearGradient><linearGradient id="linear-gradient-2" x1="225.45" y1="1144.92" x2="122.11" y2="998.14" xlink:href="#linear-gradient"/><linearGradient id="linear-gradient-3" x1="541.02" y1="1047.94" x2="486.88" y2="824.08" gradientTransform="matrix(-1, 0, 0, 1, 2063.65, 0)" gradientUnits="userSpaceOnUse"><stop offset="0" stop-color="#ffe5c0"/><stop offset="0.31" stop-color="#fbdfba"/><stop offset="0.74" stop-color="#efd0a8"/><stop offset="1" stop-color="#e6c49a"/></linearGradient><linearGradient id="linear-gradient-4" x1="351.15" y1="1076.41" x2="319.27" y2="865.43" xlink:href="#linear-gradient"/><clipPath id="clip-path"><rect class="cls-1" x="-132.63" y="373.32" width="1222.87" height="1222.87"/></clipPath><clipPath id="clip-path-2"><path class="cls-1" d="M595.47,892.33l51.77,263.56,66.39,1.26c4.38,11.5,19.58,19,19.58,19,70.1,32.86,109-11,109-11,36.14-44.36-9.31-111.1-9.31-111.1-25.74-41-27.39-62.51-27.39-62.51,3.84-17.52-8.76-31.76-8.76-31.76L758.4,928.09c-63.52-52.57-84.34-51.48-84.34-51.48-5.83-.52-11.32-.76-16.47-.76-43.1,0-62.12,16.48-62.12,16.48"/></clipPath><linearGradient id="linear-gradient-5" x1="-3.56" y1="3.1" x2="-2.96" y2="3.1" gradientTransform="matrix(0, -436.59, -436.59, 0, 2089.34, -477.15)" gradientUnits="userSpaceOnUse"><stop offset="0" stop-color="#ffe5c0"/><stop offset="0.26" stop-color="#fbe0ba"/><stop offset="0.6" stop-color="#f0d0a9"/><stop offset="0.82" stop-color="#e6c39a"/><stop offset="1" stop-color="#e6c39a"/></linearGradient><clipPath id="clip-path-4"><path class="cls-1" d="M111.05,1152.27h25.39c18.62,25.19,63.9,29.39,125.24,9.67S277,1072.13,277,1072.13c-17.53-61.34-81-59.15-81-59.15-2.08-.14-4.1-.22-6.08-.22-87.72,0-78.83,139.51-78.83,139.51"/></clipPath><linearGradient id="linear-gradient-6" x1="-4.46" y1="4.57" x2="-3.86" y2="4.57" gradientTransform="matrix(0, -300.63, -300.63, 0, 1587.9, -200.44)" xlink:href="#linear-gradient-5"/><clipPath id="clip-path-5"><path class="cls-1" d="M495,842.11c-89.82,1.09-76.11,111.38-76.11,111.38l23.39,199.29,41.77.4c24.09,75.58,103,66.82,103,66.82,66.81,2.19,60.24-77.77,61.33-87.63s-6.57-112.82-6.57-112.82C646.13,961.5,599,897.8,599,897.8c-31.5-50.9-79.1-56-97-56a64.59,64.59,0,0,0-7.09.32"/></clipPath><linearGradient id="linear-gradient-7" x1="-4.6" y1="2.68" x2="-4" y2="2.68" gradientTransform="matrix(0, -385.72, -385.72, 0, 1561.88, -724.82)" gradientUnits="userSpaceOnUse"><stop offset="0" stop-color="#ffe5c0"/><stop offset="0.31" stop-color="#fbe0ba"/><stop offset="0.73" stop-color="#f0d1a9"/><stop offset="1" stop-color="#e7c49a"/></linearGradient><clipPath id="clip-path-7"><path class="cls-1" d="M239.35,1024l54.22,110.61c15.47,77.77,93,67.91,93,67.91,47.1,5.48,63.53-50.38,63.53-50.38,5.48-25.2-9.86-76.68-9.86-76.68,1.1-23-9.85-90.65-9.85-90.65-14.24-77.52-100.77-79.12-100.77-79.12-2.85-.17-5.59-.25-8.26-.25-101.32,0-82,118.56-82,118.56"/></clipPath><linearGradient id="linear-gradient-8" x1="-5.2" y1="2.09" x2="-4.6" y2="2.09" gradientTransform="matrix(0, -357.36, -357.36, 0, 1084.23, -779.61)" xlink:href="#linear-gradient-5"/></defs><path class="cls-2" d="M1462.8,892.33s-23.83-20.65-78.6-15.72c0,0-20.81-1.09-84.34,51.48l-38.34,31.77s-12.59,14.24-8.76,31.76c0,0-1.64,21.51-27.38,62.51,0,0-45.46,66.74-9.31,111.1,0,0,38.88,43.81,109,11,0,0,15.2-7.53,19.58-19l66.4-1.26"/><path class="cls-3" d="M1792.62,1153.84l-66.4,1.26s67.49-86.43,74.62-172.4C1800.84,982.7,1777.28,1121.77,1792.62,1153.84Z"/><path class="cls-4" d="M1947.22,1152.27s9.29-145.86-84.91-139.29c0,0-63.53-2.19-81,59.15,0,0-46,70.1,15.33,89.81s106.61,15.52,125.23-9.67Z"/><path class="cls-5" d="M1616,1152.78l-41.77.4c-24.1,75.58-103,66.82-103,66.82-66.82,2.19-60.24-77.77-61.34-87.63s6.57-112.82,6.57-112.82c-4.38-58,42.72-121.75,42.72-121.75,39.43-63.7,104.06-55.69,104.06-55.69,89.81,1.09,76.11,111.38,76.11,111.38Z"/><path class="cls-3" d="M1574.43,1153.18c39.43-285.06,65.16-204.07,65.16-204.07l-28.17,204.07Z"/><path class="cls-6" d="M1818.91,1024s20.4-124.88-90.23-118.31c0,0-86.53,1.6-100.77,79.12,0,0-11,67.65-9.86,90.65,0,0-15.33,51.48-9.86,76.68,0,0,16.43,55.86,63.53,50.38,0,0,77.51,9.86,93-67.91"/><path class="cls-3" d="M1411,1155.89l-66.4,1.26s67.49-86.43,74.61-172.39C1419.24,984.76,1395.69,1123.83,1411,1155.89Z"/><path class="cls-3" d="M1800.84,1037.49s-14.37-37.11-36.15,76.81C1764.69,1114.3,1776.61,1047.77,1800.84,1037.49Z"/><g class="cls-7"><g class="cls-8"><rect class="cls-9" x="544.76" y="835.67" width="384.3" height="413.22" transform="translate(-326.91 336.81) rotate(-21.19)"/></g><g class="cls-7"><path class="cls-3" d="M265.64,1153.84l66.4,1.26s-67.48-86.43-74.61-172.4c0,0,23.55,139.07,8.21,171.14"/></g><g class="cls-10"><rect class="cls-11" x="73.11" y="962.8" width="278.95" height="266.86" transform="translate(-592.32 322.26) rotate(-35.15)"/></g><g class="cls-12"><rect class="cls-13" x="363.16" y="817.98" width="332.64" height="434.58" transform="translate(-228.53 153.48) rotate(-13.6)"/></g><g class="cls-7"><path class="cls-3" d="M483.83,1153.18c-39.43-285.06-65.16-204.07-65.16-204.07l28.18,204.07Z"/></g><g class="cls-14"><rect class="cls-15" x="198.4" y="889.51" width="278.75" height="338.69" transform="translate(-154.4 62.35) rotate(-8.59)"/></g><g class="cls-7"><path class="cls-3" d="M647.24,1155.89l66.39,1.26S646.15,1070.72,639,984.76c0,0,23.56,139.07,8.22,171.13"/><path class="cls-3" d="M257.43,1037.49s14.37-37.11,36.14,76.81c0,0-11.91-66.53-36.14-76.81"/></g></g></svg>