<?xml version="1.0" encoding="UTF-8"?>
<svg id="Layer_2" data-name="Layer 2" xmlns="http://www.w3.org/2000/svg" viewBox="0 0 2048 2048">
  <defs>
    <style>
      .cls-1 {
        fill: #fff;
      }

      .cls-2 {
        fill: #231f20;
      }
    </style>
  </defs>
  <g id="Layer_1-2" data-name="Layer 1">
    <circle class="cls-2" cx="1024" cy="1024" r="1024"/>
    <path class="cls-1" d="M1398.56,694.85c-7.77-4.02-15.33-8.42-22.66-13.19-21.31-14.09-40.85-30.69-58.19-49.44-43.4-49.66-59.61-100.04-65.58-135.31h.24c-4.99-29.28-2.93-48.22-2.61-48.22h-197.67v764.36c0,10.26,0,20.41-.43,30.43,0,1.25-.12,2.4-.19,3.74,0,.55,0,1.13-.12,1.7v.43c-4.23,55.69-35.89,105.63-84.45,133.22-24.92,14.18-53.11,21.62-81.79,21.58-92.1,0-166.74-75.1-166.74-167.84s74.64-167.84,166.74-167.84c17.43-.02,34.76,2.73,51.34,8.13l.24-201.27c-101.73-13.14-204.33,16.87-282.94,82.77-34.07,29.6-62.71,64.92-84.64,104.38-8.34,14.39-39.83,72.2-43.64,166.02-2.4,53.25,13.6,108.43,21.22,131.23v.48c4.8,13.43,23.38,59.25,53.66,97.88,24.42,30.99,53.27,58.2,85.62,80.78v-.48l.48,.48c95.7,65.03,201.8,60.76,201.8,60.76,18.37-.74,79.89,0,149.77-33.11,77.5-36.71,121.62-91.4,121.62-91.4,28.19-32.68,50.6-69.92,66.27-110.13,17.89-47.02,23.86-103.42,23.86-125.96v-405.51c2.4,1.44,34.34,22.56,34.34,22.56,0,0,46.01,29.49,117.8,48.7,51.5,13.67,120.9,16.54,120.9,16.54v-196.23c-24.31,2.64-73.68-5.04-124.23-30.24Z"/>
  </g>
</svg>