<?xml version="1.0" encoding="utf-8"?>
<!-- Generator: Adobe Illustrator 27.0.1, SVG Export Plug-In . SVG Version: 6.00 Build 0)  -->
<svg version="1.1" id="Layer_2_00000098938419984888772210000009217212965625363369_"
	 xmlns="http://www.w3.org/2000/svg" xmlns:xlink="http://www.w3.org/1999/xlink" x="0px" y="0px" viewBox="0 0 2048 2048"
	 style="enable-background:new 0 0 2048 2048;" xml:space="preserve">
<style type="text/css">
	.st0{fill:#FFFFFF;}
</style>
<path d="M1024,0L1024,0c565.5,0,1024,458.5,1024,1024l0,0c0,565.5-458.5,1024-1024,1024l0,0C458.5,2048,0,1589.5,0,1024l0,0
	C0,458.5,458.5,0,1024,0z"/>
<path class="st0" d="M1398.6,694.8c-7.8-4-15.3-8.4-22.7-13.2c-21.3-14.1-40.8-30.7-58.2-49.4c-43.4-49.7-59.6-100-65.6-135.3h0.2
	c-5-29.3-2.9-48.2-2.6-48.2h-197.7V1213c0,10.3,0,20.4-0.4,30.4c0,1.2-0.1,2.4-0.2,3.7c0,0.6,0,1.1-0.1,1.7v0.4
	c-4.2,55.7-35.9,105.6-84.5,133.2c-24.9,14.2-53.1,21.6-81.8,21.6c-92.1,0-166.7-75.1-166.7-167.8s74.6-167.8,166.7-167.8
	c17.4,0,34.8,2.7,51.3,8.1l0.2-201.3c-101.7-13.1-204.3,16.9-282.9,82.8c-34.1,29.6-62.7,64.9-84.6,104.4
	c-8.3,14.4-39.8,72.2-43.6,166c-2.4,53.2,13.6,108.4,21.2,131.2v0.5c4.8,13.4,23.4,59.2,53.7,97.9c24.4,31,53.3,58.2,85.6,80.8v-0.5
	l0.5,0.5c95.7,65,201.8,60.8,201.8,60.8c18.4-0.7,79.9,0,149.8-33.1c77.5-36.7,121.6-91.4,121.6-91.4
	c28.2-32.7,50.6-69.9,66.3-110.1c17.9-47,23.9-103.4,23.9-126V833.5c2.4,1.4,34.3,22.6,34.3,22.6s46,29.5,117.8,48.7
	c51.5,13.7,120.9,16.5,120.9,16.5V725.1C1498.5,727.7,1449.1,720.1,1398.6,694.8L1398.6,694.8z"/>
</svg>
