<?xml version="1.0" encoding="UTF-8"?>
<svg id="Layer_2" data-name="Layer 2" xmlns="http://www.w3.org/2000/svg" viewBox="0 0 2048 2048">
  <defs>
    <style>
      .cls-1 {
        fill: #fff;
      }

      .cls-2 {
        fill: #231f20;
      }
    </style>
  </defs>
  <g id="Layer_1-2" data-name="Layer 1">
    <circle class="cls-2" cx="1024" cy="1024" r="1024"/>
    <path class="cls-1" d="M1573.97,747.77c-13.41-49.58-52.09-88.41-101.67-101.67-66.6-25.71-711.69-38.31-898.82,.74-49.58,13.41-88.41,52.09-101.67,101.67-30.06,131.88-32.34,416.99,.74,551.82,13.41,49.58,52.09,88.41,101.67,101.67,131.88,30.35,758.84,34.63,898.82,0,49.58-13.41,88.41-52.09,101.67-101.67,32.05-143.66,34.33-411.1-.74-552.55Z"/>
    <path class="cls-2" d="M1212.96,1024.05l-300.59-172.4v344.79l300.59-172.4Z"/>
  </g>
</svg>