<?xml version="1.0" encoding="utf-8"?>
<!-- Generator: Adobe Illustrator 27.0.1, SVG Export Plug-In . SVG Version: 6.00 Build 0)  -->
<svg version="1.1" id="Layer_2_00000133499975835247334560000011135466965107922361_"
	 xmlns="http://www.w3.org/2000/svg" xmlns:xlink="http://www.w3.org/1999/xlink" x="0px" y="0px" viewBox="0 0 2048 2048"
	 style="enable-background:new 0 0 2048 2048;" xml:space="preserve">
<style type="text/css">
	.st0{fill:#FFFFFF;}
</style>
<path d="M1024,0L1024,0c565.5,0,1024,458.5,1024,1024l0,0c0,565.5-458.5,1024-1024,1024l0,0C458.5,2048,0,1589.5,0,1024l0,0
	C0,458.5,458.5,0,1024,0z"/>
<path class="st0" d="M1574,747.8c-13.4-49.6-52.1-88.4-101.7-101.7c-66.6-25.7-711.7-38.3-898.8,0.7
	c-49.6,13.4-88.4,52.1-101.7,101.7c-30.1,131.9-32.3,417,0.7,551.8c13.4,49.6,52.1,88.4,101.7,101.7c131.9,30.3,758.8,34.6,898.8,0
	c49.6-13.4,88.4-52.1,101.7-101.7C1606.8,1156.7,1609,889.2,1574,747.8L1574,747.8z"/>
<path d="M1213,1024.1L912.4,851.7v344.8L1213,1024.1L1213,1024.1z"/>
</svg>
